<?xml version="1.0" standalone="no"?>
<!DOCTYPE svg PUBLIC "-//W3C//DTD SVG 1.1//EN" "http://www.w3.org/Graphics/SVG/1.1/DTD/svg11.dtd">
<svg xmlns="http://www.w3.org/2000/svg">
<metadata>Generated by Fontastic.me</metadata>
<defs>
<font id="jobins" horiz-adv-x="512">
<font-face font-family="jobins" units-per-em="512" ascent="480" descent="-32"/>
<missing-glyph horiz-adv-x="512" />

<glyph glyph-name="announcement" unicode="&#97;" d="M430 510c-1 0-9-7-16-15-43-43-108-79-177-97l-16-4-2 4c-2 2-6 4-9 6-5 3-8 3-73 3-65 0-69 0-74-3-11-6-16-15-16-30l0-9-8-1c-5-1-11-3-14-4-7-3-16-13-18-20-2-7-2-87 0-95 2-7 12-17 19-20 3-1 9-2 14-2l7 0 0-9c0-10 2-18 7-23 5-5 13-9 20-9 5 0 5 0 7-7 1-3 9-38 19-78 17-74 19-79 28-86 11-10 14-10 44-11 19 0 30 0 34 1 13 4 21 15 21 30 0 6-5 28-17 77-9 38-17 70-17 72-1 2 0 2 5 2 7 0 17 5 21 9l2 4 19-5c43-11 90-32 126-57 18-12 32-23 48-39 7-8 15-15 17-16 8-4 20 0 25 9 2 4 3 10 3 72l1 68 6 5c16 10 31 32 37 52 3 11 3 33 0 44-6 22-20 41-38 53l-5 4-1 56c0 62 0 62-10 68-5 3-14 4-19 1z m-1-206c0-50 0-111-1-135l-1-44-9 8c-42 38-116 75-176 88-17 4-16-1-16 73 0 76-2 69 19 74 27 7 68 22 95 36 28 14 60 35 79 53l8 7 1-34c1-20 1-76 1-126z"/>
<glyph glyph-name="arrowright" unicode="&#98;" d="M13 439c-8-3-13-11-13-19 0-8 5-16 13-19 3-2 11-2 171-2 159 0 167 0 171 2 7 3 12 11 12 19 0 8-5 16-12 19-4 2-12 2-171 2-160 0-168 0-171-2z m2-162c-6-3-10-6-12-11-6-11-2-23 9-29l6-2 418 0 5 2c15 8 16 29 1 38l-4 2-210 1c-169 0-210 0-213-1z m-2-165c-8-3-13-11-13-19 0-8 6-17 14-20 4-1 15-2 242-2 227 0 238 1 242 2 8 3 14 12 14 20 0 8-5 16-12 19-4 2-14 2-244 2-229 0-240 0-243-2z"/>
<glyph glyph-name="building" unicode="&#99;" d="M117 510c-2-2-5-5-6-7-3-4-3-5-3-30l0-25-10-1c-12 0-16-3-20-9l-3-4 0-434 361 0 0 434-3 4c-1 2-4 5-6 6-4 3-6 3-77 3l-73 0 0 27c-1 29-1 30-9 36l-4 2-72 0c-70 0-71 0-75-2z m121-49l0-14-92 0 0 28 92 0z m159-238l0-185-66 0 0 79 7 0c8 0 13 3 17 9 4 5 3 16-1 22-6 8 0 7-99 7-99 0-93 1-99-7-3-6-4-17 0-22 4-6 9-9 17-9l6 0 0-79-66 0 0 371 284 0z m-104-146l0-39-75 0 0 79 75 0z m-111 295c-6-2-11-8-12-15-2-9 2-18 10-21 6-3 34-3 39 0 15 8 12 32-4 36-7 2-27 2-33 0z m112 0c-6-2-9-5-12-10-4-9-1-20 6-25 4-2 5-3 22-3 19 0 19 0 23 3 11 9 9 27-3 34-5 3-30 3-36 1z m-112-71c-5-2-11-9-12-14-2-9 2-17 9-21 4-2 7-3 20-3 13 0 16 1 20 3 8 4 12 14 9 22-2 6-7 12-12 13-5 1-29 1-34 0z m111 0c-5-2-11-9-12-15-1-7 2-15 7-19 4-3 4-3 22-3 19 0 19 0 23 3 5 4 8 12 7 19-1 6-7 13-13 15-5 1-29 1-34 0z m-112-71c-5-2-11-9-11-14-2-8 2-17 9-21 4-2 7-2 20-2 18 0 23 2 27 8 7 12 1 26-11 30-5 1-30 1-34-1z m111 0c-2-1-5-3-7-5-8-10-5-24 6-30 3-2 6-2 19-2 13 0 16 0 20 2 7 4 11 12 10 20-1 6-6 13-12 15-5 2-31 2-36 0z"/>
<glyph glyph-name="bus" unicode="&#100;" d="M193 509c-80-5-125-25-143-62-10-20-9-12-9-176 0-137 0-147 2-155 4-12 10-24 18-32l7-8 0-27c0-25 0-29 2-33 6-12 13-14 37-14 22 0 27 1 33 8 7 6 8 12 8 32l0 14 214 0 0-14c0-20 2-26 8-32 7-7 12-8 33-8 20 0 25 1 31 5 8 7 9 11 9 42l0 27 7 8c8 8 14 20 17 32 3 8 3 18 3 155 0 165 0 156-10 177-4 8-7 13-15 20-24 25-62 37-130 41-20 2-101 2-122 0z m223-172l0-68-322 0 0 135 322 0z m-265-152c32-16 30-59-2-73-18-8-40 1-50 20-10 21-2 43 20 53 6 4 8 4 17 4 7-1 11-2 15-4z m242 0c16-8 26-27 22-44-9-37-58-43-75-9-3 7-4 10-4 17 0 17 11 32 28 38 6 3 22 2 29-2z"/>
<glyph glyph-name="download" unicode="&#101;" d="M244 509c-2-1-5-5-7-8-2-6-2-7-2-133 0-127 0-128 3-132 10-13 26-13 36 0 3 4 3 5 3 132 0 125 0 127-2 133-4 7-10 11-19 11-5 0-9-1-12-3z m-137-223c-9-6-12-18-7-27 1-2 29-30 61-63 56-56 58-59 68-64 9-4 12-5 23-5 14-1 22 1 33 7 7 4 125 120 128 126 4 9 1 20-8 26-5 4-16 5-21 1-2-1-29-28-61-60-51-50-59-58-63-58-12-2-10-4-71 58-32 32-59 59-61 60-5 4-16 3-21-1z m-96-187c-3-2-7-5-8-8-3-4-3-6-3-17 1-11 2-15 5-23 9-23 27-40 50-48l10-3 382 0 10 3c23 8 41 25 50 48 5 12 7 32 3 39-3 5-10 10-16 11-12 1-23-10-23-23 0-9-4-18-12-25-12-13 5-12-203-12-208 0-191-1-203 12-8 7-12 16-12 25 0 16-16 28-30 21z"/>
<glyph glyph-name="faceuser" unicode="&#102;" d="M195 511c-15-1-35-6-49-12-10-5-31-20-40-29-14-14-28-37-33-53l-1-5-1 6 0 6-1-5c-1-2-2-6-3-8-1-2-1-4-1-5 0 0-1-4-3-8-4-12-7-23-7-24 0 0 0-4-1-8-1-10-1-36 1-39 0-2 1-5 1-8 0-2 1-7 2-10 0-3 1-8 2-12 0-3 1-6 1-7 1-1 2-3 2-5 1-6 2-7 3-13 1-3 1-5 1-5-1 0-4-2-6-5-10-8-14-21-14-38 0-6 1-14 2-17 0-4 1-8 1-9 0-1 1-3 2-3 2-3 5-8 5-13 1-2 2-6 4-9 1-3 2-5 2-6-1-1 14-15 16-15 3-1 9-4 9-5-1-2 0-7 1-6 0 0 1-2 2-6 1-3 3-7 4-10 1-2 4-9 7-15 3-6 5-11 4-11 0-1 0-1 1-1 1 0 1 0 1-1 0-1 2-3 3-6 2-3 4-6 4-6 0-1 0-2 1-3 1-1 4-4 6-7 4-7 8-12 14-19 2-2 6-5 8-8 2-2 4-5 5-5 0 0 3-1 5-4 2-2 6-5 9-7 2-2 6-4 7-6 1-1 2-2 3-2 1 0 4-1 7-4 4-2 7-4 7-4 0 0 4-1 8-3 4-2 7-4 8-4 3 0 11-3 10-4 0 0 0-1 2-1 5 0 10-1 14-2 8-2 30-2 43-1 6 1 16 2 21 4 6 2 10 3 11 2 0 0 2 1 4 2 3 1 8 3 12 6 12 6 25 14 34 22 5 4 9 7 9 7 0 0 3 2 5 4l4 5-10-9 5 5c3 3 6 5 6 5 1 0 2 1 2 1 0 1 3 5 7 11 11 14 29 44 30 50 1 3 7 20 9 22 1 1 1 3 1 5 0 3 2 5 9 9 5 3 13 10 13 12 0 0 1 1 2 2 2 2 5 9 6 15 1 3 3 9 5 13 2 4 4 9 4 10 0 1 0 2 1 2 0 0 1 6 1 13 0 14-2 29-4 32-1 1-3 4-5 6-2 4-5 7-9 9l-5 3 3 6c1 3 2 6 2 7-1 0 3 15 4 19 0 0 1 6 2 13 1 6 2 13 3 14 1 5 1 37 0 43-1 3-2 9-3 12-1 4-1 7-1 7 0 1-1 4-3 7-1 4-3 7-3 8 0 1-1 3-3 6-1 3-3 7-5 10-1 3-3 5-3 5 0 0-3 3-5 6-4 7-6 9-17 18-38 32-87 50-147 58-20 3-57 4-70 3z m-51-130c1-4 2-6 3-6 1 0 4-6 4-8 0-1 1-1 1-2 2-1 12-14 12-16 0 0 0-1 0 0 1 0 4-2 6-4 36-35 70-55 116-69 35-9 54-12 123-15 10 0 11-1 17-5 4-2 8-4 9-4 1 0 3-2 4-3 0-2 1-3 2-3 1 0 4-8 4-10-1 0 0-1 0-1 1 0 1-1 1-3-1-2-1-3 0-3 3 0 1-19-2-21-1 0-1-2-1-4-1-2-2-5-3-8-1-2-3-5-3-6 0-1-1-5-3-9-6-11-12-16-19-14l-4 0-2-9c-2-5-3-10-4-11-1 0-1-2-1-4-1-4-8-22-10-24 0-1-1-2-1-3 0-1-2-3-3-6-2-3-4-6-4-7 0-2-14-23-23-34-9-10-20-20-32-28-8-6-15-9-15-8 0 0-3-1-6-3-7-4-20-9-27-9-3-1-7-1-9-2-5-1-29-1-36 0-3 1-7 1-9 2-9 1-41 14-41 17 0 0-2 1-4 2-9 3-41 34-44 43-1 1-1 3-2 2 0-1-6 7-6 8 0 1 0 2-1 2 0 0-1 0-1 1 0 1-1 2-2 3 0 1-2 5-4 9-1 3-3 6-3 5 0-1-1 1-2 4-1 4-4 9-5 12-1 3-3 6-3 8 0 1 0 3-1 3-1 2-5 16-5 19 0 2-1 4-1 4-1 0-2 1-2 2 0 2 0 2-6 2-4 0-6 0-7 1-1 1-1 1-1 1 0-2-6 4-8 8 0 3-2 4-2 4-1 0-3 8-3 11 0 1-1 3-3 5-3 4-7 20-7 26 0 3 0 7 1 9 1 3 1 5 1 6-1 1 5 10 8 13 4 2 5 2 12 1 4 0 9-1 11-2 5-1 6 0 8 9 1 5 2 11 4 15 1 4 2 7 1 7 0 0 0 2 1 5 1 3 2 7 3 9 0 3 1 6 2 7 2 3 4 10 4 11-1 0 2 7 4 15 3 8 6 15 6 17 0 3 3 16 5 20 0 2 1 5 1 7 1 3 1 8 2 12l0 7 3-4c1-3 2-5 2-6z m25-129c-5-3-8-8-8-15-1-12 5-19 17-20 6 0 7 0 11 3 6 3 8 9 8 17-1 7-4 12-9 15-5 2-14 2-19 0z m163 0c-6-3-8-8-9-15-1-12 5-19 17-20 6 0 8 0 12 3 5 3 8 9 7 17 0 7-3 12-9 15-5 2-13 2-18 0z"/>
<glyph glyph-name="faq" unicode="&#103;" d="M247 489c-13-2-29-10-37-20-3-3-7-9-9-14-7-13-7-16-7-67l0-45-72 0c-72-1-73-1-79-3-18-6-33-21-40-38l-2-7-1-83c0-57 0-84 1-88 3-15 17-33 32-40 14-7 10-7 114-7l93 0 28-26c15-14 29-26 30-27 3-2 11-2 14 0 6 4 6 1 6 86 0 87 0 82-7 86-8 4-17 0-19-9 0-2-1-30-1-62l0-59-18 17c-10 9-19 17-20 18-2 1-15 2-101 2l-98 0-7 3c-7 4-15 12-18 19l-2 4 0 160 3 7c5 11 14 18 26 20 3 1 31 1 72 1l66 0 0-69c0-74 0-71 6-76 3-3 7-3 12-2 2 1 13 10 32 28l29 26 96 0 97 0 6 3c17 6 30 19 37 37l3 6 0 83c0 60 0 85-1 89-3 17-16 33-32 41-15 7-12 7-125 7-56 0-104-1-107-1z m218-29c7-3 14-9 17-17l4-6 0-161-3-5c-4-8-9-14-17-17l-6-4-194-1-5-2c-2-1-12-9-22-18-9-8-17-15-17-15-1 0-1 50-1 110 0 109 0 111 2 116 4 10 11 17 22 21 4 2 10 2 110 2l106-1z m-118-43c-16-3-29-17-31-34-2-12 8-21 19-15 4 2 6 5 7 10 1 9 5 13 12 13 6 0 13-7 12-13-1-1-6-6-12-12-5-5-11-11-12-13-4-6-5-13-4-18 4-14 22-13 26 1 0 1 4 6 12 13 14 14 16 18 16 31 0 8-1 10-3 15-6 12-16 20-29 22-4 0-7 1-7 1-1 0-4-1-6-1z m-5-106c-8-8-3-23 9-23 12 0 17 15 9 23-3 2-5 3-9 3-4 0-6-1-9-3z m-253-87c-6-2-9-11-5-17 2-5 6-7 12-7 8 0 13 5 13 13 0 10-10 16-20 11z m44 0c-5-2-7-6-7-12 1-5 1-6 4-9 4-3 5-3 9-3 9 0 14 4 14 13 0 10-10 16-20 11z"/>
<glyph glyph-name="favicon" unicode="&#104;" d="M307 510c-9-4-19-16-23-26-1-3-1-44-2-164l0-161-3-7c-11-35-38-60-72-68-3 0-11-1-18-2-11 0-14-1-19-3-8-4-16-12-20-20-2-4-2-6-2-19 0-12 0-14 3-19 3-7 11-14 19-18 13-6 49-2 76 8 27 10 47 23 67 43 21 21 34 43 43 69 8 25 8 9 8 194l0 166-3 7c-4 7-12 15-20 19-7 3-27 4-34 1z"/>
<glyph glyph-name="fileadd" unicode="&#105;" d="M96 510c-16-7-29-18-37-35-7-15-7 0-7-218 0-218 0-203 7-219 8-16 22-29 41-35l8-3 297 0 8 4c17 6 32 18 39 33 8 17 8 2 8 178 0 146-1 158-2 160-1 1-31 32-66 70l-64 67-113 0-112 0z m211-68l1-45 2-6c7-17 22-30 39-35 5-1 15-1 45-1l39 0 0-145c0-161 0-152-6-163-4-7-11-13-19-16l-6-4-144 0c-143 0-144 0-150 2-13 4-24 15-27 28-2 5-2 25-2 200 0 175 0 195 2 200 3 13 14 23 27 28 5 2 8 2 102 2l97 0z m59-9c17-18 34-37 39-42l10-9-31 0c-29 0-31 1-34 3-6 3-11 9-14 14-2 5-2 7-3 37 0 19 0 31 1 30 0 0 15-15 32-33z m-116-109c-6-3-6-5-6-32l0-24-51 0-4-3c-2-3-3-5-3-8 0-3 1-6 2-8 3-5 5-5 32-5l24 0 0-25c0-27 0-29 7-32 4-1 6-1 10 0 7 3 7 5 7 32l0 25 25 0c26 0 28 0 31 5 1 2 2 5 2 8 0 3 0 5-3 8l-4 3-51 0 0 24c0 20 0 26-1 28-3 5-11 8-17 4z"/>
<glyph glyph-name="filedownload" unicode="&#106;" d="M96 510c-16-7-29-18-37-35-7-15-7 0-7-218 0-218 0-203 7-219 8-16 22-29 41-35l8-3 297 0 8 4c17 6 32 18 39 33 8 17 8 2 8 178 0 146-1 158-2 160-1 1-31 32-66 70l-64 67-113 0-112 0z m211-68l1-45 2-6c7-17 22-30 39-35 5-1 15-1 45-1l39 0 0-145c0-161 0-152-6-163-4-7-11-13-19-16l-6-4-144 0c-143 0-144 0-150 2-13 4-24 15-27 28-2 5-2 25-2 200 0 175 0 195 2 200 3 13 14 23 27 28 5 2 8 2 102 2l97 0z m59-9c17-18 34-37 39-42l10-9-31 0c-29 0-31 1-34 3-6 3-11 9-14 14-2 5-2 7-3 37 0 19 0 31 1 30 0 0 15-15 32-33z m-215-90c-9-3-13-12-8-20 4-6-3-6 113-6l106 0 3 2c4 3 6 6 6 11 0 5-2 9-6 12-2 1-6 1-107 2-59 0-106-1-107-1z m98-67c-2-1-4-3-5-5-1-3-1-9-1-71l0-68-4 5c-2 2-13 14-25 27-25 26-26 27-34 25-6-2-9-6-9-13 0-4 1-6 3-9 6-6 71-76 73-78 4-3 8-4 13-3 4 1 9 6 42 42 21 22 38 41 39 42 0 1 1 4 1 6 0 11-12 18-21 11-1-1-13-13-26-27l-24-26-1 68c0 64-1 68-2 70-1 2-4 4-5 5-4 1-11 1-14-1z"/>
<glyph glyph-name="id" unicode="&#107;" d="M46 447c-21-4-39-21-44-42-2-5-2-27-2-148 0-159 0-149 7-162 6-12 19-24 33-28l7-3 206 0c225 0 213 0 226 5 11 6 22 16 27 28 6 11 6 3 6 160l0 143-2 8c-7 20-24 35-44 39-11 3-410 3-420 0z m415-33c6-2 13-8 16-14l3-6 0-277-3-4c-2-6-7-11-13-14l-5-2-405 0-5 2c-7 3-12 8-14 14-2 4-2 5-2 142 0 117 0 138 1 142 2 7 10 15 17 17 4 2 30 2 205 2 174 0 200 0 205-2z m-319-48l-3-2 0-224 3-3c2-2 3-2 13-2 10 0 11 0 14 2l2 3 0 224-2 2c-3 3-4 3-14 3-10 0-11 0-13-3z m76 0l-3-2 0-224 5-5 52 0 52 1 9 2c11 3 24 10 32 16 13 11 24 28 29 46l2 10 0 40c1 36 0 41-1 49-7 32-27 54-57 65-15 4-21 5-71 5l-47 0z m100-30c17-3 31-14 38-28 7-14 8-16 8-57 0-31-1-36-2-43-5-17-14-29-28-35-12-6-17-7-54-7l-33 0 0 172 32 0c24 0 33 0 39-2z"/>
<glyph glyph-name="info" unicode="&#108;" d="M230 507c-15-6-28-19-35-35-11-23-6-53 12-72 14-15 28-21 49-21 14 0 18 1 28 6 43 20 52 77 18 109-19 18-48 23-72 13z m15-162c-9-3-19-13-22-24-2-11-3-283 0-295 4-16 16-26 33-26 19 0 32 12 34 32 1 5 1 73 1 149-1 133-1 140-5 147-7 14-26 22-41 17z"/>
<glyph glyph-name="info-1" unicode="&#109;" d="M230 507c-15-6-28-19-35-35-11-23-6-53 12-72 14-15 28-21 49-21 14 0 18 1 28 6 43 20 52 77 18 109-19 18-48 23-72 13z m15-162c-9-3-19-13-22-24-2-11-3-283 0-295 4-16 16-26 33-26 19 0 32 12 34 32 1 5 1 73 1 149-1 133-1 140-5 147-7 14-26 22-41 17z"/>
<glyph glyph-name="userline" unicode="&#110;" d="M228 510c-65-14-109-67-112-131-2-42 12-78 42-107 54-54 142-54 196 0 29 29 44 65 42 107-3 52-33 97-80 120-21 10-31 12-57 12-17 1-25 0-31-1z m50-43c5-1 14-5 21-8 10-5 14-8 24-18 14-14 19-22 25-39 4-11 4-13 4-29 0-19-2-30-10-45-12-24-36-43-63-50-11-3-35-3-47 0-27 7-51 26-63 50-7 15-10 26-10 45 0 16 1 18 5 29 5 17 11 25 24 39 10 10 14 13 25 18 6 3 15 7 20 8 10 2 34 2 45 0z m-168-293c-53-11-94-53-104-105-1-6-2-18-2-32 0-23 0-23 3-27 5-6 10-8 18-8 8 0 13 2 17 8 4 4 4 5 4 16 0 36 6 56 23 76 11 13 29 25 47 29 7 2 21 3 130 3 77 0 127 0 135-1 37-4 66-25 78-60 4-9 4-12 5-35 1-21 2-25 4-28 5-6 10-9 18-9 8 0 13 2 18 8l4 4-1 27c0 26-1 29-4 40-15 49-53 84-102 94-15 3-277 3-291 0z"/>
<glyph glyph-name="umbrella" unicode="&#111;" d="M307 487c0 0-7-1-14-1-16-1-20-1-25-2-2-1-5-1-7-1-2-1-6-1-8-2-3 0-6-1-8-1-2-1-5-1-6-2-1 0-3 0-4 0-1 0-1 0-1-1 0 0-1-1-6-1-1 0-2-1-2-1 0 0-1-1-2-1-1 0-4-1-7-2-3-1-7-2-8-2-1 0-2-1-2-1-1 0-4-1-7-3-4-1-9-3-11-4-2-1-5-2-5-2 0 0-1 0-2-1-1 0-1-1-1 0 0 0-1 0-1 0-1-2-17-10-17-9-1 0-1 0-1 0 0-1-1-2-2-2 0 0-1 0-1-1 0 0-1-1-1 0-1 0-2 0-2-1-1-1-2-2-2-2-1 0-2 0-2 0 0-1-2-2-4-3-2-1-4-3-5-3 0-1-1-1-2-1 0 0-1 0-1-1 0 0-1-1-2-2-5-1-3-2 5-2 24-1 59-13 93-30 14-8 35-20 42-25 3-2 6-4 6-4 1 0 2-1 2-2 0 0 1-1 2-1 1 0 1-1 2-2 0 0 1-1 2-1 0 0 2-1 2-2 1-1 2-2 3-2 1 0 2-1 3-2 0 0 1-1 2-1 1 0 2-1 2-2 1-1 2-2 2-2 1 0 4-2 6-4 3-3 7-5 8-6 2-1 3-3 2-3 0-1 1-1 1-1 1 0 3-1 5-3 2-2 3-3 4-3 0 0 2-2 4-4 2-2 4-4 5-4 1 0 8-7 8-9 0 0 1-1 2-1 2-1 5-4 9-7 3-4 6-7 7-6 0 0 1 1 0 1 0 1-1 6-1 11-1 12 0 27 3 40 3 15 13 35 20 42 2 2 4 4 4 4 0 2 14 16 15 16 1 0 2 1 3 2 2 1 3 3 4 3 1 0 1 0 1 1 0 0 1 1 2 1 1 1 3 2 5 3 1 1 3 2 4 1 1 0 1 0 1 0 0 1 0 1 1 1 0 0 1 1 1 1 1 1 5 4 7 4 1 0 5 1 8 3 4 1 7 2 8 2 0 0 2 1 5 1 2 0 5 1 6 1 1 0 2 0 2 0 1 1-7 5-19 11-30 15-63 25-97 30-3 0-6 1-6 1-3 0-37 2-37 2z m-248-50c-1-1-1-3-1-3 0-1 3-8 7-15 4-8 7-14 7-15 0-1 0-1 0-1 1 0 5 4 11 9 8 8 10 10 8 10-1 0-13 6-26 14-4 2-4 2-6 1z m70-24c0 0-3 0-6-1-6 0-14-3-16-5-1 0-2 0-2 0 0 1 0 1 0 0-1-1-2-1-2-2-2 0-13-10-13-11 0-1 0-2-1-2-1 0-1-1-1-2 0 0-2-4-3-8-3-7-3-8-3-24 0-13 1-19 2-26 7-34 25-72 50-111 4-6 7-12 7-12-1-1 0-1 0-1 1 0 4-3 7-7 3-4 6-9 7-10 2-2 3-4 3-4 0-1 1-2 3-3 1-2 2-3 2-4 0-1 2-2 3-4 2-2 4-4 4-5 0-1 1-2 1-2 1 0 3-2 5-4 1-2 2-4 2-4-1 0-1 0 0-1 1-1 2-2 3-2 0 0 3-2 6-5 2-4 5-7 5-7 1 0 1-1 1-1-1-1 4-6 5-5 0 0 0 3 0 5-2 8-1 33 0 42 2 11 6 22 10 32 4 7 12 21 13 21 1 0 8-8 17-16 29-30 57-59 94-97 20-20 44-44 53-54 9-9 16-17 16-17 0-1 0-1 1-1 1 0 3-1 3-1 1-2 13-8 20-10 9-3 26-3 35-1 3 1 6 1 6 1 1 0 1 0 1 1 0 1 0 1 1 1 0-1 1-1 1 0 0 0 3 2 7 3 3 2 6 4 6 4 0 1 1 1 2 1 2 0 12 10 12 11 0 0 1 3 3 5 8 13 12 27 11 42 0 9-2 16-7 26-1 3-3 6-3 6 0 1 0 1 0 1-1-1-5 5-5 6 0 1-16 18-17 18 0 0-2 1-4 1-3 2-14 3-14 2 0 0 0-1-1-1 0 0-1 0-1 0-1 0-1 0-2 0-2 0-8-9-9-13-1-5-1-9 2-14 1-2 2-4 2-4-1 0 0-1 1-2 2-1 3-2 3-2 1 0 1 0 1-1 0 0 3-4 7-7 3-4 7-8 8-10 3-7 1-22-3-26-1 0-2-2-3-3 0-1-2-2-3-3-1-1-2-2-3-2-1-2-9-4-15-4-5 0-8 0-12 2-6 3-3 0-112 112-21 22-46 47-55 56-9 9-16 17-16 18 0 1 1 1 2 1 2 0 2 0 2 1-1 1 1 2 2 1 0 0 1 1 2 2 1 1 2 2 2 2 1 0 1 0 1 0 0 2 22 11 28 13 1 0 3 1 4 1 1 0 2 0 3 1 0 0 3 0 5 1 3 0 7 1 11 1 10 2 29 1 40-1l3-1-3 3c-2 1-3 3-3 4 0 0-1 2-3 3-7 5-12 10-12 10 0 2-3 4-4 4-2 0-7 5-7 7 0 1-1 1-2 1-2 0-6 4-5 5 0 1 0 1-2 1-2 0-6 3-6 5 0 0-1 1-3 2-2 0-3 2-3 3 0 0 0 1-1 1 0-1-2 0-3 1-2 2-3 3-4 3 0 0-1 1-2 2-1 1-3 2-5 3-4 3-14 10-14 11-1 1-1 1-2 1 0 0-5 3-10 6-38 25-84 44-113 46-9 1-18 1-18 1z m-69-54c-1-1-2-3-3-3 0-1-1-2-1-2-1 0-1-1-2-2 0-2-1-3-1-3-1 0-1-1-1-1 0-1-1-3-3-4-2-3-2-3-2-5 0-1-1-1-1 0-1 0-1 0-1-1 0 0-3-6-6-12-45-83-50-182-13-269 6-13 16-33 16-32 0 0 0 2 0 5 2 17 14 44 23 53 2 2 4 4 4 4 0 2 15 17 17 17 1 0 2 0 2 1-1 1 0 2 2 2 1 0 3 1 3 2 0 1 1 2 2 1 2 0 2 0 2 1-1 1 0 2 2 1 0 0 1 1 1 2 1 1 2 1 2 1 1 0 1 0 1 0 0 1 1 1 1 1 1 0 4 2 6 3 3 1 5 2 5 2 0 0 2 0 5 1 2 1 4 2 5 2 1 0 2 0 2 1 1 0 2 0 4 1 1 0 5 1 8 1 7 2 38 1 42 0 2-1 3-1 3-1 1 0-1 2-4 5-3 3-5 6-5 6 0 1-3 5-3 5-1-1-8 7-8 8 1 1 0 2-1 2 0 1-1 1-1 1 0-1-1 1-3 3-2 2-3 4-2 4 0 1-1 1-1 1-2 0-7 6-6 7 0 0-1 1-3 3-2 1-3 3-3 4 1 1 0 1 0 1-2 0-4 4-4 6 0 0 0 0 0 0-1-1-5 4-4 5 0 1 0 1-1 1-1-1-22 30-32 47-19 35-32 67-38 95-1 5-2 13-2 20 0 7 0 12 0 12-1 0-2-1-3-3z"/>
<glyph glyph-name="suitcase" unicode="&#112;" d="M176 482c-12-3-21-11-27-23l-3-7-1-19 0-20-59 0-59-1-7-3c-8-3-13-9-17-17l-2-5 0-334 3-6c4-7 9-12 17-16l6-3 459 0 5 3c8 4 13 9 17 16l4 6 0 334-3 5c-3 8-9 14-17 17l-6 3-60 1-59 0 0 20 0 19-4 7c-6 12-15 20-27 23-9 3-152 3-160 0z m152-37c2-2 2-3 2-17l0-15-148 0 0 15c0 14 0 15 2 17 2 2 3 2 72 2 69 0 70 0 72-2z m147-114l0-45-438 0 0 90 438 0z m-302-119l1-37 2-4c2-2 5-5 7-6 5-2 5-2 73-2 68 0 68 0 73 2 2 1 5 4 7 6l3 4 0 37 0 36 136 0 0-183-438 0 0 183 136 0z m128 12l0-24-90 0 0 48 90 0z"/>
<glyph glyph-name="stagearrow" unicode="&#113;" d="M327 429c-6-3-9-9-9-16 0-8 2-11 12-21 5-5 22-21 37-36 16-15 41-39 57-54l27-26-142-1c-135 0-143 0-146-2-11-7-11-26 0-33 3-2 11-2 146-2l144-1-29-27c-16-15-41-40-57-55-15-15-32-31-37-35-10-10-12-13-12-21 0-12 7-19 19-19 4 0 8 1 9 2 3 1 31 28 59 54 8 9 33 33 55 53 21 20 41 39 43 42 6 6 9 15 9 25 0 10-2 17-7 24-2 2-33 32-68 66-72 68-87 82-91 84-4 2-15 2-19-1z m-318-156c-6-4-9-9-9-17 0-7 3-13 9-16 3-2 6-2 55-2 50 0 53 0 56 2 6 3 9 9 9 16 0 8-3 13-9 17-3 2-6 2-56 2-49 0-52 0-55-2z"/>
<glyph glyph-name="settings" unicode="&#114;" d="M237 509c-16-6-28-18-34-34-3-8-3-10-3-22l0-13-5-2c-3 0-11-3-17-6l-12-5-8 7c-13 13-24 18-40 20-16 1-31-5-43-17-12-12-18-27-17-43 1-15 7-27 20-40l7-8-5-13c-3-7-6-15-7-17l-1-4-13 0c-19 0-31-5-43-16-11-11-16-24-16-40 0-9 1-12 3-19 6-17 18-29 35-35 7-2 10-2 21-2l13 0 1-4c1-3 4-10 7-17l5-13-7-8c-13-13-18-25-20-40-1-16 5-31 17-43 12-12 27-18 43-17 16 1 27 7 40 20l8 7 12-5c6-3 14-6 17-7l5-1 0-13c0-19 5-31 16-43 11-11 24-16 40-16 25 0 45 14 53 37 3 8 3 10 3 22l0 13 4 1c3 1 10 4 17 7l13 5 8-7c13-13 25-19 40-20 16-1 31 5 43 17 12 12 18 27 17 43-1 15-7 27-20 40l-7 8 5 13c3 7 6 14 7 17l1 4 13 0c19 0 31 5 43 16 11 11 16 24 16 40 0 9 0 12-3 19-6 16-18 28-34 34-8 3-10 3-22 3l-13 0-1 4c-1 3-4 10-7 17l-5 13 7 8c13 13 19 24 20 40 1 16-5 31-17 43-12 12-27 18-43 17-15-2-27-7-40-20l-8-7-13 5c-7 3-14 6-17 7l-4 1 0 13c0 9 0 14-2 18-3 13-12 25-24 33-13 9-33 11-49 5z m29-32c2-1 5-3 7-5 6-6 6-9 7-32 0-17 1-20 2-22 3-3 8-6 17-8 9-3 19-7 33-14 14-7 17-8 23-6 1 1 8 7 16 14 16 16 22 19 33 16 9-3 16-12 16-23 1-8-2-12-16-27-7-7-13-14-14-15-2-6-1-9 6-23 7-14 10-21 14-33 1-5 3-11 4-13 4-5 5-5 27-6 23-1 25-1 32-8 9-9 8-24-1-33-6-6-9-6-30-7-26 0-27-1-32-19-4-13-7-19-14-34-7-13-8-16-6-22 1-1 7-8 14-16 13-13 16-17 17-24 2-13-12-27-25-26-7 1-12 4-25 17-8 7-15 13-16 14-6 2-9 1-22-6-15-7-21-10-34-14-18-5-19-6-19-32-1-21-1-24-7-30-9-9-25-9-34 0-6 6-6 9-7 31 0 18-1 21-2 23-2 3-8 6-17 8-9 3-19 7-33 14-14 7-17 8-23 6-1-1-8-7-15-14-14-13-18-16-26-17-12-1-26 12-25 25 1 7 4 12 17 25 7 8 13 15 14 16 2 6 1 9-5 21-8 15-11 23-14 35-2 5-4 11-5 12-3 6-5 6-27 7-22 1-24 1-31 7-5 5-7 10-7 16 0 10 5 18 14 22 3 2 6 2 24 3 18 0 21 1 23 2 3 2 6 8 8 17 3 9 7 19 14 33 7 14 8 17 6 23-1 1-7 8-14 15-13 14-16 18-17 26-1 13 13 26 25 25 8-1 12-4 26-17 7-7 14-13 15-14 6-2 9-1 23 6 14 7 24 11 33 14 9 2 15 5 17 8 1 2 2 5 2 23 1 18 1 21 3 24 2 5 7 10 12 12 4 3 14 2 19 0z m-33-111c-31-7-56-24-73-51-22-35-22-83 0-118 17-27 43-45 74-51 13-3 37-2 50 1 40 11 71 41 81 81 2 8 3 12 3 28 0 16-1 20-3 27-10 41-42 72-81 82-12 3-39 4-51 1z m43-33c2-1 9-4 15-6 10-5 11-6 21-15 8-9 10-12 14-20 7-13 9-23 9-36 0-14-2-23-9-36-4-8-6-11-14-20-9-8-12-10-20-14-13-7-23-9-36-9-13 0-22 2-34 8-18 8-29 19-37 36-6 13-8 22-8 35 0 13 2 22 8 34 8 18 19 29 37 37 17 8 35 10 54 6z"/>
<glyph glyph-name="people" unicode="&#115;" d="M163 441c-47-11-80-49-82-96-1-30 10-57 31-78 40-39 103-39 143 0 21 21 32 48 30 78-1 38-23 71-58 88-15 7-22 8-41 9-12 0-18 0-23-1z m37-32c3-1 10-3 15-6 7-3 10-5 18-13 9-10 13-16 18-28 2-8 3-9 3-21 0-14-2-21-8-32-8-18-26-32-45-37-9-3-26-3-35 0-19 5-37 19-46 37-5 11-7 18-7 32 0 12 0 13 3 21 4 12 8 18 18 28 8 8 10 10 18 13 5 3 12 5 15 6 7 2 25 2 33 0z m143-13c-32-11-55-40-57-73-2-32 15-62 45-77 16-9 35-11 55-7 17 4 36 16 47 31 6 9 8 13 11 22 15 43-9 89-53 104-6 2-8 2-24 2-15 0-18 0-24-2z m-53-190c-2-1-4-1-4-1 0-1 3-2 7-3 13-4 27-12 38-20l4-2 54 0c51 0 55-1 61-2 9-3 15-6 21-12 7-6 10-12 13-20 2-5 3-8 3-20 1-20 2-22 14-22 5 0 6 0 9 3l2 2 0 18c0 16 0 18-2 25-6 15-15 29-27 38-8 6-16 10-27 13l-8 3-77 0c-42 0-78 0-81 0z m-213-10c-39-8-68-38-76-76-1-5-1-14-1-24 0-17 0-17 2-20 4-4 8-5 13-5 6 0 10 1 13 5 2 3 3 4 3 13 0 26 4 40 16 55 8 9 22 18 34 21 6 1 16 2 95 2 57 0 93 0 99-1 27-2 47-18 57-43 2-7 3-9 3-26 1-16 1-18 3-20 3-5 8-7 13-7 6 0 10 1 13 6l3 3 0 20c-1 18-1 21-3 29-11 35-39 61-75 68-10 2-202 2-212 0z"/>
<glyph glyph-name="menu" unicode="&#116;" d="M13 439c-8-3-13-11-13-19 0-8 5-16 13-19 3-2 14-2 243-2 230 0 240 0 244 2 7 3 12 11 12 19 0 8-5 16-12 19-4 2-14 2-244 2-229 0-240 0-243-2z m2-162c-6-3-10-6-12-11-6-11-2-23 9-29l6-2 477 0 5 2c15 8 16 29 1 38l-4 2-239 1c-194 0-240 0-243-1z m-2-165c-8-3-13-11-13-19 0-8 6-17 14-20 4-1 15-2 242-2 227 0 238 1 242 2 8 3 14 12 14 20 0 8-5 16-12 19-4 2-14 2-244 2-229 0-240 0-243-2z"/>
<glyph glyph-name="notification" unicode="&#117;" d="M239 510c-14-3-28-13-36-23-10-13-14-25-16-43l0-11-9-4c-46-22-81-66-94-114-6-22-6-26-6-89l0-58-26-40c-14-21-26-40-26-42-3-7 1-18 7-22l5-2 137 0 2-7c9-26 31-46 58-53 11-3 31-3 42 0 27 7 49 27 58 53l3 7 136 0 5 2c7 4 10 15 7 22 0 2-12 21-26 43l-26 39 0 58c0 46 0 59-1 67-6 38-22 71-48 98-15 16-32 29-51 38l-9 4 0 11c-1 18-6 30-16 43-8 11-22 20-36 23-8 2-26 2-34 0z m29-36c10-4 20-17 20-27l0-2-7 1c-4 0-15 0-25 0-10 0-21 0-25 0l-7-1 0 2c0 6 4 14 10 20 9 9 22 11 34 7z m17-66c56-12 97-54 111-113 1-6 1-14 2-56l0-48-284 0 0 48c1 45 1 49 3 57 14 61 59 104 118 113 12 2 38 2 50-1z m132-280c10-16 18-29 18-29 0-1-80-1-179-1-98 0-179 0-179 1 0 0 8 13 18 29l19 28 285 0z m-119-67c0-2-7-11-12-14-8-8-18-11-30-11-12 0-22 4-31 11-4 3-11 13-11 14 0 1 18 1 42 1 24 0 42 0 42-1z"/>
<glyph glyph-name="logout" unicode="&#118;" d="M61 510c-3-1-6-3-8-4-6-3-13-12-17-19l-2-6 0-451 2-6c5-8 13-16 21-20l7-4 137 0 138 0 4 3c6 4 8 10 8 19-1 9-4 14-11 18l-5 2-130 1-129 0 0 426 259 0 5 3c7 4 10 9 11 18 0 9-2 15-8 19l-4 3-136 0c-131 0-137 0-142-2z m271-129c-2-3-2-3-3-17 0-9 0-14 1-16 1-2 16-16 38-36l37-34-265-1-3-2-3-3 0-32 3-3 3-3 265-1-37-33c-22-20-37-34-38-36-1-2-1-7-1-16 1-14 1-14 3-17 3-3 4-3 8-3 4 0 6 1 9 3 7 7 124 113 127 117 3 2 3 4 3 8 0 4 0 5-3 8-3 4-120 110-127 117-3 2-5 3-9 3-4 0-5-1-8-3z"/>
<glyph glyph-name="logout-1" unicode="&#119;" d="M61 510c-3-1-6-3-8-4-6-3-13-12-17-19l-2-6 0-451 2-6c5-8 13-16 21-20l7-4 137 0 138 0 4 3c6 4 8 10 8 19-1 9-4 14-11 18l-5 2-130 1-129 0 0 426 259 0 5 3c7 4 10 9 11 18 0 9-2 15-8 19l-4 3-136 0c-131 0-137 0-142-2z m271-129c-2-3-2-3-3-17 0-9 0-14 1-16 1-2 16-16 38-36l37-34-265-1-3-2-3-3 0-32 3-3 3-3 265-1-37-33c-22-20-37-34-38-36-1-2-1-7-1-16 1-14 1-14 3-17 3-3 4-3 8-3 4 0 6 1 9 3 7 7 124 113 127 117 3 2 3 4 3 8 0 4 0 5-3 8-3 4-120 110-127 117-3 2-5 3-9 3-4 0-5-1-8-3z"/>
<glyph glyph-name="line" unicode="&#120;" d="M237 501c-10 0-31-3-44-6-54-11-105-38-139-74-27-28-44-59-51-94-2-9-2-14-2-35 0-27 1-34 8-56 25-76 101-133 195-149 14-2 19-4 26-8 8-5 10-12 6-37-4-26-4-30 4-32 7-1 21 5 49 21 57 35 117 80 153 116 39 39 58 71 67 111 2 9 3 13 3 34 0 21-1 25-3 34-11 52-42 96-91 128-51 34-115 51-181 47z m-125-151c1-1 3-3 4-5 2-3 2-8 2-49l0-46 21 0 22-1 3-3c5-4 6-9 3-14-1-2-3-4-4-5-3-2-5-3-31-3-31 0-32 0-37 5l-2 3-1 54c0 30 0 55 1 57 0 3 5 8 8 9 4 1 8 0 11-2z m90 0c1-1 3-3 4-5 2-3 2-8 2-57 0-52 0-54-2-57-2-4-7-7-11-7-3 0-9 3-11 7-2 3-2 5-2 57 0 56 0 57 5 61 4 4 10 4 15 1z m43 1c4-1 7-5 31-38l28-37 0 33c0 29 1 34 2 37 5 8 18 8 22 0 2-3 2-9 2-58 0-53 0-55-2-58-4-6-12-8-18-4-1 1-14 18-29 39l-26 36-1-34c0-30-1-34-2-36-3-4-8-7-11-7-3 0-9 3-11 7-2 3-2 5-2 57 0 56 0 57 5 61 1 1 3 2 5 3 1 0 3 1 3 1 0 0 2-1 4-2z m174 0c4-3 7-8 7-11 0-4-2-8-6-11-2-2-3-2-24-2l-21 0 0-26 21 0c22 0 25-1 28-6 3-5 3-9 0-13-4-6-7-7-29-7l-20 0 0-25 21 0c19 0 21 0 24-2 6-4 8-14 3-19-5-5-6-5-35-5-30 0-32 0-36 6-2 3-2 4-3 55 0 28 0 53 1 56 0 5 5 11 10 11 1 1 15 1 30 1 24-1 27-1 29-2z"/>
<glyph glyph-name="infohistory" unicode="&#121;" d="M247 511c-1 0-4-1-8-1-7 0-14-1-20-2-2 0-4-1-5-1-5-1-17-3-19-4-2 0-4-1-5-1-2-1-3-1-4-1 0 0-2 0-3-1-2-1-4-2-4-1 0 0-2-1-4-2-2-1-5-1-5-1-2 0-38-18-39-20-1 0-2-1-3-1-2-1-3-2-3-2 0-1-1-1-1-1-1 0-10-6-12-7 0-1-2-2-4-4-5-3-15-11-19-15-1-1-6-6-10-9l-7-7 1 9c0 6 0 16 1 24 0 14 0 14-3 17-1 2-3 3-4 3-14 1-14 1-18-2-1-2-3-5-3-7 0-2-1-10-1-19 0-8-1-17-1-20-1-3-1-12-1-21-1-14-2-28-3-43 0-12 4-15 18-15 5-1 15-1 20-1 6-1 17-1 24-2 7 0 16 0 20-1 4 0 14-1 23-1l16-1 3 4c4 3 4 3 4 11 0 8 0 9-3 11-2 2-5 3-10 3-4 0-11 1-15 1-17 1-38 2-41 2-2 0-4 0-3 1 0 0 2 2 4 5 5 7 21 22 30 30 10 7 28 19 33 20 2 1 4 2 4 3 0 0 1 1 2 1 2 0 5 2 7 3 3 1 5 2 6 1 0 0 1 1 1 1 0 1 4 3 8 3 1 0 5 2 8 3 7 3 7 2 24 6 18 3 53 3 72-2 27-6 50-15 72-30 42-28 72-70 85-117 6-22 7-27 7-55 0-29-2-41-9-63-10-31-27-59-49-81-10-10-36-31-39-31-1 0-2-1-3-2-1-1-4-3-6-4-8-4-21-10-22-10-1 0-3-1-6-2-2-1-6-3-8-3-2-1-7-2-10-3-16-4-30-6-51-6-17 0-24 1-43 5-4 1-15 4-19 5-1 1-3 2-3 2-1 0-2 0-2 0 0 0-1 1-2 1 0 0-1 0-1 0-1 1-2 1-6 2-2 1-8 4-26 13-5 3-24 17-29 22-3 2-5 3-5 3 0 0-3 3-7 7-4 4-8 9-9 10-1 1-5 6-8 10-4 5-7 10-8 10-1 2-11 19-11 20 0 0-1 1-3 2-1 2-2 4-3 5 0 2-2 6-4 10-2 4-3 9-3 11 0 1-1 2-2 2 0 0-1 1 0 1 0 0 0 3-2 6-1 4-2 8-2 9-1 2-1 6-2 8-1 3-1 8-2 10 0 3-1 7-1 10-1 2-1 12-1 21 0 16-1 18-3 23-4 8-13 14-23 13-9 0-17-6-21-14-2-4-2-6-2-22 1-20 2-27 4-41 0-3 1-6 1-6 0-1 1-3 1-6 1-3 1-6 2-7 1-1 1-4 1-6 1-2 2-7 3-10 2-4 5-12 7-18 2-6 6-15 8-19 3-5 6-11 7-13 1-2 2-4 3-4 0-1 2-4 4-7 2-4 5-7 5-7 1 0 1-1 1-2 0-1 1-3 3-4 1-2 3-5 5-7 5-7 8-10 12-14 2-3 4-5 4-6 0-1 0-1 1-1 0 1 4-2 8-6 4-4 7-7 7-7 0 0 2-1 3-2 7-6 27-22 29-22 0 0 3-1 7-4 3-2 6-4 7-4 0 0 5-2 11-6 6-3 13-7 15-8 5-2 25-9 27-9 1 0 3 0 4-1 1-1 11-2 22-4 27-4 60-4 81 0 1 0 4 1 6 1 11 2 20 4 24 5 2 1 5 2 6 2 3 1 28 10 31 12 1 0 5 2 8 3 3 1 5 3 5 3 0 1 2 1 4 2 2 0 3 1 3 2 0 0 2 1 3 1 2 1 3 1 3 2 0 1 1 1 2 1 1 0 2 1 2 1 0 1 0 1 1 1 0-1 1 0 1 0 0 1 1 2 2 2 0 0 1 0 1 1 0 0 1 1 2 1 1 0 3 1 9 7 1 0 2 1 3 1 0 0 2 1 2 2 1 1 3 3 3 3 2 0 31 27 37 36 2 2 5 6 7 8 5 6 17 24 22 34 3 6 6 11 7 12 0 1 0 2 0 2-1 1 0 1 0 1 1 0 2 1 2 2 0 1 1 3 2 5 0 1 1 2 1 2-1 0 0 2 1 5 2 2 3 5 3 5 0 1 0 3 1 5 1 2 2 4 2 5 0 1 1 3 1 4 1 1 1 2 1 2 0 0 0 1 1 3 0 2 1 5 1 7 1 2 1 5 2 6 1 4 1 100 0 109-1 4-2 10-3 12-1 2-2 6-2 8-1 5-10 29-12 31-1 1-2 3-2 5-1 3-7 14-8 15-1 0-2 4-2 6 0 0 0 0-1 0 0 0-2 2-3 4-1 3-3 5-3 5-1 0-1 0-1 1 0 1-1 3-3 5-2 2-3 3-3 4 0 0-2 3-4 6-3 3-5 5-5 6 0 1-1 2-15 16-5 5-11 11-14 13-2 2-5 5-6 6-4 4-22 16-32 22-7 4-26 14-28 15 0 0-1 0-2 0-5 3-31 12-33 12-1 0-2 1-2 1 0 0-1 0-3 0-1 1-3 1-5 1-1 1-2 1-2 1 0 0-3 1-7 2-4 0-9 1-15 2-7 1-45 3-45 2z m-4-137c-10-3-17-13-17-23 0-16 18-27 36-22 6 1 14 8 16 13 2 5 2 13 0 18-2 5-10 12-16 13-5 2-14 2-19 1z m1-76c-6-2-11-4-14-8-2-3-2-4-2-69 0-76-1-71 10-76 10-4 22-4 31 1 11 6 11 1 10 76l0 65-5 4c-2 3-5 5-6 6-2 1-17 2-24 1z"/>
<glyph glyph-name="angle-double-left" unicode="&#122;" d="M289 119c0-3-1-5-3-7l-14-14c-2-2-4-3-7-3-2 0-5 1-6 3l-134 133c-1 2-2 4-2 7 0 2 1 4 2 6l134 133c1 2 4 3 6 3 3 0 5-1 7-3l14-14c2-2 3-4 3-6 0-3-1-5-3-7l-112-112 112-113c2-1 3-4 3-6z m110 0c0-3-1-5-3-7l-15-14c-1-2-4-3-6-3-3 0-5 1-7 3l-133 133c-2 2-3 4-3 7 0 2 1 4 3 6l133 133c2 2 4 3 7 3 2 0 5-1 6-3l15-14c2-2 3-4 3-6 0-3-1-5-3-7l-113-112 113-113c2-1 3-4 3-6z"/>
<glyph glyph-name="angle-double-right" unicode="&#65;" d="M280 238c0-3-1-5-3-7l-133-133c-2-2-4-3-7-3-2 0-5 1-6 3l-15 14c-2 2-3 4-3 7 0 2 1 5 3 6l113 113-113 112c-2 2-3 4-3 7 0 2 1 4 3 6l15 14c1 2 4 3 6 3 3 0 5-1 7-3l133-133c2-2 3-4 3-6z m109 0c0-3-1-5-2-7l-134-133c-1-2-4-3-6-3-3 0-5 1-7 3l-14 14c-2 2-3 4-3 7 0 2 1 5 3 6l112 113-112 112c-2 2-3 4-3 7 0 2 1 4 3 6l14 14c2 2 4 3 7 3 2 0 5-1 6-3l134-133c1-2 2-4 2-6z"/>
<glyph glyph-name="calendar" unicode="&#66;" d="M55 37l82 0 0 82-82 0z m100 0l92 0 0 82-92 0z m-100 100l82 0 0 92-82 0z m100 0l92 0 0 92-92 0z m-100 110l82 0 0 82-82 0z m210-210l92 0 0 82-92 0z m-110 210l92 0 0 82-92 0z m220-210l82 0 0 82-82 0z m-110 100l92 0 0 92-92 0z m-100 247l0 82c0 3-1 5-3 7-2 2-4 2-7 2l-18 0c-2 0-4 0-6-2-2-2-3-4-3-7l0-82c0-2 1-5 3-6 2-2 4-3 6-3l18 0c3 0 5 1 7 3 2 1 3 4 3 6z m210-247l82 0 0 92-82 0z m-110 110l92 0 0 82-92 0z m110 0l82 0 0 82-82 0z m9 137l0 82c0 3-1 5-3 7-2 2-4 2-6 2l-18 0c-3 0-5 0-7-2-2-2-3-4-3-7l0-82c0-2 1-5 3-6 2-2 4-3 7-3l18 0c2 0 4 1 6 3 2 1 3 4 3 6z m110 18l0-365c0-10-4-19-11-26-7-7-16-11-26-11l-402 0c-10 0-19 4-26 11-7 7-11 16-11 26l0 365c0 10 4 19 11 26 7 7 16 11 26 11l36 0 0 27c0 13 5 24 14 33 9 9 20 13 32 13l18 0c13 0 24-4 33-13 9-9 13-20 13-33l0-27 110 0 0 27c0 13 4 24 13 33 9 9 20 13 33 13l18 0c12 0 23-4 32-13 9-9 14-20 14-33l0-27 36 0c10 0 19-4 26-11 7-7 11-16 11-26z"/>
<glyph glyph-name="chain-broken" unicode="&#67;" d="M144 149l-73-73c-2-2-5-3-7-3-2 0-4 1-7 3-1 2-2 4-2 6 0 3 1 5 2 7l74 73c1 2 4 3 6 3 3 0 5-1 7-3 1-2 2-4 2-7 0-2-1-4-2-6z m48-12l0-91c0-3-1-5-3-7-1-2-3-2-6-2-3 0-5 0-7 2-1 2-2 4-2 7l0 91c0 3 1 5 2 7 2 1 4 2 7 2 3 0 5-1 6-2 2-2 3-4 3-7z m-64 64c0-3-1-5-3-6-1-2-3-3-6-3l-92 0c-2 0-4 1-6 3-2 1-3 3-3 6 0 3 1 5 3 7 2 1 4 2 6 2l92 0c3 0 5-1 6-2 2-2 3-4 3-7z m361-36c0-23-8-43-24-58l-42-42c-16-16-35-24-58-24-23 0-43 8-58 24l-96 96c-4 4-8 9-12 16l68 5 78-78c6-5 12-8 20-8 8 0 14 3 19 8l42 41c6 6 8 12 8 20 0 7-2 14-8 19l-78 79 5 68c7-4 12-8 16-12l96-96c16-17 24-36 24-58z m-176 206l-68-5-78 79c-6 5-12 8-20 8-7 0-14-3-19-8l-42-42c-6-5-8-12-8-19 0-8 2-14 8-19l78-79-5-68c-7 4-12 8-16 12l-96 96c-16 16-24 36-24 58 0 23 8 42 24 58l42 42c16 16 35 23 58 23 23 0 43-8 58-24l96-96c4-4 8-9 12-16z m181-24c0-2-1-4-3-6-2-2-4-3-6-3l-92 0c-3 0-5 1-6 3-2 2-3 4-3 6 0 3 1 5 3 7 1 2 3 3 6 3l92 0c2 0 4-1 6-3 2-2 3-4 3-7z m-156 156l0-92c0-2-1-4-2-6-2-2-4-3-7-3-3 0-5 1-6 3-2 2-3 4-3 6l0 92c0 3 1 5 3 6 1 2 3 3 6 3 3 0 5-1 7-3 1-1 2-3 2-6z m117-43l-74-73c-2-2-4-3-6-3-2 0-5 1-7 3-1 1-2 4-2 6 0 3 1 5 2 7l73 73c2 2 5 2 7 2 2 0 5 0 7-2 1-2 2-4 2-7 0-2-1-4-2-6z"/>
<glyph glyph-name="circle-o" unicode="&#68;" d="M256 411c-28 0-54-7-78-20-24-14-43-33-57-57-13-24-20-50-20-78 0-28 7-54 20-78 14-24 33-43 57-57 24-13 50-20 78-20 28 0 54 7 78 20 24 14 43 33 57 57 13 24 20 50 20 78 0 28-7 54-20 78-14 24-33 43-57 57-24 13-50 20-78 20z m219-155c0-40-9-77-29-110-20-34-46-60-80-80-33-20-70-29-110-29-40 0-77 9-110 29-34 20-60 46-80 80-20 33-29 70-29 110 0 40 9 77 29 110 20 34 46 60 80 80 33 20 70 29 110 29 40 0 77-9 110-29 34-20 60-46 80-80 20-33 29-70 29-110z"/>
<glyph glyph-name="circle" unicode="&#69;" d="M475 256c0-40-9-77-29-110-20-34-46-60-80-80-33-20-70-29-110-29-40 0-77 9-110 29-34 20-60 46-80 80-20 33-29 70-29 110 0 40 9 77 29 110 20 34 46 60 80 80 33 20 70 29 110 29 40 0 77-9 110-29 34-20 60-46 80-80 20-33 29-70 29-110z"/>
<glyph glyph-name="clock-o" unicode="&#70;" d="M293 357l0-128c0-3-1-5-3-7-2-2-4-3-7-3l-91 0c-3 0-5 1-7 3-1 2-2 4-2 7l0 18c0 3 1 5 2 6 2 2 4 3 7 3l64 0 0 101c0 2 1 4 3 6 1 2 3 3 6 3l18 0c3 0 5-1 7-3 2-2 3-4 3-6z m118-101c0 28-7 54-20 78-14 24-33 43-57 57-24 13-50 20-78 20-28 0-54-7-78-20-24-14-43-33-57-57-13-24-20-50-20-78 0-28 7-54 20-78 14-24 33-43 57-57 24-13 50-20 78-20 28 0 54 7 78 20 24 14 43 33 57 57 13 24 20 50 20 78z m64 0c0-40-9-77-29-110-20-34-46-60-80-80-33-20-70-29-110-29-40 0-77 9-110 29-34 20-60 46-80 80-20 33-29 70-29 110 0 40 9 77 29 110 20 34 46 60 80 80 33 20 70 29 110 29 40 0 77-9 110-29 34-20 60-46 80-80 20-33 29-70 29-110z"/>
<glyph glyph-name="clone" unicode="&#71;" d="M475 46l0 311c0 2 0 4-2 6-2 2-4 3-7 3l-311 0c-2 0-4-1-6-3-2-2-3-4-3-6l0-311c0-3 1-5 3-7 2-2 4-2 6-2l311 0c3 0 5 0 7 2 2 2 2 4 2 7z m37 311l0-311c0-13-4-24-13-33-9-9-20-13-33-13l-311 0c-12 0-23 4-32 13-9 9-13 20-13 33l0 311c0 12 4 23 13 32 9 9 20 13 32 13l311 0c13 0 24-4 33-13 9-9 13-20 13-32z m-110 109l0-45-36 0 0 45c0 3-1 5-3 7-2 2-4 2-6 2l-311 0c-3 0-5 0-7-2-2-2-2-4-2-7l0-311c0-2 0-4 2-6 2-2 4-3 7-3l45 0 0-36-45 0c-13 0-24 4-33 13-9 9-13 20-13 32l0 311c0 13 4 24 13 33 9 9 20 13 33 13l311 0c12 0 23-4 32-13 9-9 13-20 13-33z"/>
<glyph glyph-name="comments-o" unicode="&#72;" d="M201 402c-29 0-56-5-82-15-25-9-45-23-60-40-15-17-22-35-22-54 0-16 5-31 15-46 10-14 24-27 42-37l28-16-10-24c6 4 12 7 18 11l12 9 15-3c15-3 30-4 44-4 29 0 57 5 82 15 25 10 45 23 60 40 15 17 23 35 23 55 0 19-8 37-23 54-15 17-35 31-60 40-25 10-53 15-82 15z m0 37c37 0 70-7 101-20 31-13 56-31 73-53 18-22 27-47 27-73 0-27-9-51-27-74-17-22-42-40-73-53-31-13-64-20-101-20-16 0-33 2-50 5-24-17-50-29-80-37-6-1-15-3-24-4l-1 0c-2 0-4 0-6 2-2 2-3 4-3 6 0 1 0 1 0 2 0 1 0 1-1 2 0 0 1 1 1 1l1 2 1 1 1 2 1 1 1 2c1 1 3 3 7 7 3 3 6 6 7 8 2 2 4 5 7 8 2 4 5 8 7 11 2 4 4 8 6 13-24 14-42 31-56 51-14 20-20 41-20 64 0 26 9 51 27 73 17 22 42 40 73 53 31 13 64 20 101 20z m235-334c2-5 4-9 6-13 2-4 4-7 7-11 3-3 5-6 6-8 2-2 4-5 8-8 3-4 5-6 6-8 1 0 1 0 2-1 0-1 1-1 1-1 0-1 1-1 1-2 0 0 1-1 1-1l1-2 0-1 0-2 0-2c0-3-2-5-4-6-1-2-4-3-6-2-9 1-18 2-24 4-30 8-56 20-80 37-17-3-34-5-50-5-52 0-97 13-135 38 11-1 19-1 25-1 31 0 60 4 88 13 29 8 54 20 76 36 24 18 42 38 55 61 12 23 19 47 19 73 0 14-2 29-7 43 25-14 44-30 59-51 14-20 21-42 21-66 0-22-7-44-20-64-14-20-32-36-56-50z"/>
<glyph glyph-name="commenting-o" unicode="&#73;" d="M183 256c0-10-4-19-11-26-7-7-16-11-26-11-10 0-18 4-26 11-7 7-10 16-10 26 0 10 3 19 10 26 8 7 16 11 26 11 10 0 19-4 26-11 7-7 11-16 11-26z m110 0c0-10-4-19-11-26-7-7-16-11-26-11-10 0-19 4-26 11-7 7-11 16-11 26 0 10 4 19 11 26 7 7 16 11 26 11 10 0 19-4 26-11 7-7 11-16 11-26z m109 0c0-10-3-19-10-26-8-7-16-11-26-11-10 0-19 4-26 11-7 7-11 16-11 26 0 10 4 19 11 26 7 7 16 11 26 11 10 0 18-4 26-11 7-7 10-16 10-26z m-146 146c-39 0-75-6-109-20-34-13-61-31-81-53-19-23-29-47-29-73 0-21 6-42 20-61 14-19 33-36 58-50l24-14-7-28c-5-17-12-34-20-49 29 12 55 28 78 49l13 11 16-2c13-2 25-2 37-2 39 0 75 6 109 20 34 13 61 31 81 53 19 23 29 47 29 73 0 26-10 50-29 73-20 22-47 40-81 53-34 14-70 20-109 20z m256-146c0-33-11-64-34-92-23-28-54-50-93-66-40-17-83-25-129-25-13 0-27 1-41 2-38-33-82-56-132-69-9-2-20-4-32-6l-2 0c-3 0-5 1-8 3-2 2-3 5-4 8l0 0c-1 1-1 2 0 4 0 1 0 2 0 2 0 1 1 2 2 3l1 3 2 2 3 3c1 1 4 5 8 10 5 5 8 8 10 10 2 3 5 6 9 12 4 5 7 10 9 14 3 5 5 10 8 17 3 7 5 14 8 22-30 17-54 38-71 63-17 25-26 51-26 80 0 25 7 48 20 71 14 23 32 42 55 58 23 17 50 30 82 39 31 10 64 15 99 15 35 0 68-5 99-15 32-9 59-22 82-39 23-16 41-35 55-58 13-23 20-46 20-71z"/>
<glyph glyph-name="copyright" unicode="&#74;" d="M365 205l0-31c0-10-3-18-10-25-7-8-16-14-27-18-11-4-22-7-34-9-11-2-23-3-33-3-39 0-72 13-98 40-26 26-40 59-40 98 0 39 13 71 39 97 26 26 58 39 97 39 7 0 14 0 22-1 8-1 16-3 26-5 10-3 19-6 27-10 8-4 14-9 19-16 6-7 8-15 8-23l0-31c0-3-1-5-4-5l-34 0c-3 0-4 2-4 5l0 20c0 8-7 14-19 19-13 5-26 7-39 7-27 0-49-9-66-26-17-18-25-40-25-68 0-29 9-53 26-71 18-19 40-29 67-29 13 0 26 3 39 7 14 5 20 11 20 19l0 20c0 1 1 3 2 3 0 1 1 2 3 2l34 0c1 0 2-1 3-2 1 0 1-2 1-3z m-109 234c-25 0-48-5-71-15-23-9-42-22-58-39-17-16-30-35-39-58-10-23-15-46-15-71 0-25 5-48 15-71 9-23 22-42 39-58 16-17 35-30 58-39 23-10 46-15 71-15 25 0 48 5 71 15 23 9 42 22 58 39 17 16 30 35 39 58 10 23 15 46 15 71 0 25-5 48-15 71-9 23-22 42-39 58-16 17-35 30-58 39-23 10-46 15-71 15z m219-183c0-40-9-77-29-110-20-34-46-60-80-80-33-20-70-29-110-29-40 0-77 9-110 29-34 20-60 46-80 80-20 33-29 70-29 110 0 40 9 77 29 110 20 34 46 60 80 80 33 20 70 29 110 29 40 0 77-9 110-29 34-20 60-46 80-80 20-33 29-70 29-110z"/>
<glyph glyph-name="diamond" unicode="&#75;" d="M24 293l178-190-86 190z m232-221l100 221-200 0z m-139 257l58 110-74 0-83-110z m193-226l178 190-92 0z m-151 226l194 0-58 110-78 0z m236 0l99 0-83 110-74 0z m40 139l110-146c3-4 4-8 4-12-1-5-2-8-5-12l-275-292c-3-4-7-6-13-6-6 0-10 2-13 6l-275 292c-3 4-4 7-5 12 0 4 1 8 4 12l110 146c3 5 8 7 14 7l330 0c6 0 11-2 14-7z"/>
<glyph glyph-name="envelope-o" unicode="&#78;" d="M475 82l0 220c-6-7-12-13-19-19-51-39-92-72-122-97-10-8-18-14-24-19-6-4-14-9-24-14-11-4-21-7-30-7l0 0c-9 0-19 3-30 7-10 5-18 10-24 14-6 5-14 11-24 19-30 25-71 58-122 97-7 6-13 12-19 19l0-220c0-2 0-4 2-6 2-2 4-3 7-3l420 0c3 0 5 1 7 3 2 2 2 4 2 6z m0 301l0 7 0 3-1 4-1 2-3 3-4 0-420 0c-3 0-5-1-7-2-2-2-2-4-2-7 0-32 14-59 42-81 36-29 75-59 114-91 1-1 5-3 10-8 6-5 10-8 13-11 4-2 8-5 13-9 5-3 10-6 14-8 5-1 9-2 13-2l0 0c4 0 8 1 13 2 4 2 9 5 14 8 5 4 9 7 13 9 3 3 7 6 13 11 5 5 9 7 10 8 39 32 78 62 114 91 11 8 20 19 29 33 9 14 13 26 13 38z m37 10l0-311c0-12-4-23-13-32-9-9-20-13-33-13l-420 0c-13 0-24 4-33 13-9 9-13 20-13 32l0 311c0 13 4 23 13 32 9 9 20 14 33 14l420 0c13 0 24-5 33-14 9-9 13-19 13-32z"/>
<glyph glyph-name="eye" unicode="&#79;" d="M475 238c-29 45-65 78-108 101 11-20 17-42 17-65 0-35-13-65-38-90-25-25-55-38-90-38-35 0-65 13-90 38-25 25-38 55-38 90 0 23 6 45 17 65-43-23-79-56-108-101 25-39 57-70 95-94 38-23 79-34 124-34 45 0 86 11 124 34 38 24 70 55 95 94z m-205 109c0 4-2 7-4 10-3 3-6 4-10 4-24 0-44-8-61-25-17-17-26-38-26-62 0-4 1-7 4-9 3-3 6-4 10-4 4 0 7 1 10 4 2 2 4 5 4 9 0 17 5 31 17 42 12 12 26 18 42 18 4 0 7 1 10 4 2 2 4 6 4 9z m242-109c0-7-2-13-6-20-26-44-62-79-107-105-45-27-93-40-143-40-50 0-98 13-143 40-45 26-81 61-107 105-4 7-6 13-6 20 0 6 2 13 6 19 26 44 62 79 107 106 45 26 93 39 143 39 50 0 98-13 143-39 45-27 81-62 107-106 4-6 6-13 6-19z"/>
<glyph glyph-name="external-link" unicode="&#80;" d="M402 247l0-92c0-22-8-42-24-58-16-16-35-24-58-24l-238 0c-22 0-42 8-58 24-16 16-24 36-24 58l0 238c0 23 8 42 24 58 16 16 36 24 58 24l201 0c3 0 5 0 7-2 2-2 3-4 3-7l0-18c0-3-1-5-3-7-2-1-4-2-7-2l-201 0c-12 0-23-5-32-14-9-9-13-19-13-32l0-238c0-12 4-23 13-32 9-9 20-13 32-13l238 0c13 0 23 4 32 13 9 9 14 20 14 32l0 92c0 3 1 5 2 6 2 2 4 3 7 3l18 0c3 0 5-1 7-3 1-1 2-3 2-6z m110 247l0-147c0-5-2-9-5-12-4-4-8-6-13-6-5 0-10 2-13 6l-50 50-187-186c-2-2-4-3-6-3-3 0-5 1-7 3l-32 32c-2 2-3 4-3 7 0 2 1 4 3 6l186 187-50 50c-4 3-6 8-6 13 0 5 2 9 6 13 3 3 7 5 12 5l147 0c5 0 9-2 13-5 3-4 5-8 5-13z"/>
<glyph glyph-name="exclamation" unicode="&#81;" d="M311 155l0-64c0-5-2-9-6-12-3-4-7-6-12-6l-74 0c-5 0-9 2-12 6-4 3-6 7-6 12l0 64c0 5 2 10 6 13 3 4 7 6 12 6l74 0c5 0 9-2 12-6 4-3 6-8 6-13z m8 302l-8-219c0-5-2-10-5-13-4-4-8-6-13-6l-74 0c-5 0-9 2-13 6-3 3-5 8-5 13l-8 219c-1 5 1 9 5 13 3 4 7 5 12 5l92 0c5 0 9-1 12-5 4-4 6-8 5-13z"/>
<glyph glyph-name="exclamation-triangle" unicode="&#82;" d="M293 119l0 54c0 3-1 5-3 7-2 2-4 3-7 3l-54 0c-3 0-5-1-7-3-2-2-3-4-3-7l0-54c0-3 1-5 3-7 2-1 4-2 7-2l54 0c3 0 5 1 7 2 2 2 3 4 3 7z m-1 107l5 131c0 2-1 4-3 6-2 2-4 3-7 3l-62 0c-3 0-5-1-7-3-2-2-3-4-3-6l5-131c0-2 1-3 3-5 1-1 4-2 6-2l53 0c3 0 5 1 7 2 2 2 3 3 3 5z m-4 267l219-402c7-12 7-24 0-36-3-6-8-10-13-14-6-3-12-4-19-4l-438 0c-7 0-13 1-19 4-5 4-10 8-13 14-7 12-7 24 0 36l219 402c3 6 8 10 13 14 6 3 12 5 19 5 7 0 13-2 19-5 5-4 10-8 13-14z"/>
<glyph glyph-name="file-text-o" unicode="&#84;" d="M456 403c5-5 10-12 14-21 4-9 5-18 5-25l0-330c0-7-2-14-8-19-5-5-11-8-19-8l-384 0c-8 0-14 3-19 8-6 5-8 12-8 19l0 458c0 7 2 14 8 19 5 5 11 8 19 8l256 0c8 0 16-2 25-6 9-4 17-8 22-13z m-127 70l0-107 108 0c-2 5-4 9-7 11l-89 90c-2 2-6 4-12 6z m110-436l0 292-119 0c-8 0-14 3-19 8-6 5-8 12-8 20l0 118-220 0 0-438z m-293 246c0 3 1 5 3 7 2 2 4 3 6 3l202 0c2 0 4-1 6-3 2-2 3-4 3-7l0-18c0-3-1-5-3-6-2-2-4-3-6-3l-202 0c-2 0-4 1-6 3-2 1-3 3-3 6z m211-64c2 0 4 0 6-2 2-2 3-4 3-7l0-18c0-3-1-5-3-7-2-1-4-2-6-2l-202 0c-2 0-4 1-6 2-2 2-3 4-3 7l0 18c0 3 1 5 3 7 2 2 4 2 6 2z m0-73c2 0 4-1 6-2 2-2 3-4 3-7l0-18c0-3-1-5-3-7-2-1-4-2-6-2l-202 0c-2 0-4 1-6 2-2 2-3 4-3 7l0 18c0 3 1 5 3 7 2 1 4 2 6 2z"/>
<glyph glyph-name="file-text" unicode="&#85;" d="M456 376c3-3 5-6 8-10l-135 0 0 135c4-3 8-6 10-8z m-136-47l155 0 0-302c0-7-2-14-8-19-5-5-11-8-19-8l-384 0c-8 0-14 3-19 8-6 5-8 12-8 19l0 458c0 7 2 14 8 19 5 5 11 8 19 8l229 0 0-155c0-8 2-15 8-20 5-5 11-8 19-8z m46-210l0 18c0 3-1 5-3 7-2 1-4 2-6 2l-202 0c-2 0-4-1-6-2-2-2-3-4-3-7l0-18c0-3 1-5 3-7 2-1 4-2 6-2l202 0c2 0 4 1 6 2 2 2 3 4 3 7z m0 73l0 18c0 3-1 5-3 7-2 2-4 2-6 2l-202 0c-2 0-4 0-6-2-2-2-3-4-3-7l0-18c0-3 1-5 3-7 2-1 4-2 6-2l202 0c2 0 4 1 6 2 2 2 3 4 3 7z m0 73l0 18c0 3-1 5-3 7-2 2-4 3-6 3l-202 0c-2 0-4-1-6-3-2-2-3-4-3-7l0-18c0-3 1-5 3-6 2-2 4-3 6-3l202 0c2 0 4 1 6 3 2 1 3 3 3 6z"/>
<glyph glyph-name="filter" unicode="&#86;" d="M456 428c3-8 2-15-4-20l-141-141 0-212c0-8-4-14-11-17-3-1-5-1-7-1-6 0-10 1-13 5l-73 73c-4 4-6 8-6 13l0 139-141 141c-6 5-7 12-4 20 4 7 9 11 17 11l366 0c8 0 13-4 17-11z"/>
<glyph glyph-name="history" unicode="&#88;" d="M475 256c0-30-5-58-17-85-12-27-27-51-47-70-19-20-43-35-70-47-27-12-55-17-85-17-33 0-64 6-93 20-30 14-55 34-76 59-1 2-2 4-2 6 0 3 1 4 3 6l39 39c2 2 4 3 7 3 3 0 5-2 7-3 13-19 31-33 51-42 20-10 41-15 64-15 20 0 39 4 57 11 18 8 33 18 46 32 14 13 24 28 32 46 7 18 11 37 11 57 0 20-4 39-11 57-8 18-18 33-32 46-13 14-28 24-46 32-18 7-37 11-57 11-19 0-37-3-54-10-17-7-32-16-45-29l39-39c6-6 7-13 4-20-4-8-9-11-17-11l-128 0c-5 0-9 1-13 5-4 4-5 8-5 13l0 128c0 8 3 13 11 17 7 3 14 2 20-4l37-37c20 19 44 34 70 45 26 10 53 15 81 15 30 0 58-5 85-17 27-12 51-27 70-47 20-19 35-43 47-70 12-27 17-55 17-85z m-182 82l0-128c0-2-1-5-3-6-2-2-4-3-7-3l-91 0c-3 0-5 1-7 3-1 1-2 4-2 6l0 19c0 2 1 4 2 6 2 2 4 3 7 3l64 0 0 100c0 3 1 5 3 7 1 2 3 2 6 2l18 0c3 0 5 0 7-2 2-2 3-4 3-7z"/>
<glyph glyph-name="heart" unicode="&#90;" d="M256 37c-5 0-9 1-13 5l-178 172c-2 1-4 4-8 7-3 4-8 10-16 19-7 9-13 18-19 28-6 9-11 21-15 34-5 14-7 27-7 40 0 42 12 74 36 98 24 24 58 35 101 35 11 0 23-2 36-6 12-4 23-9 34-16 11-7 20-14 27-20 8-6 15-12 22-19 7 7 14 13 22 19 7 6 16 13 27 20 11 7 22 12 34 16 13 4 25 6 36 6 43 0 77-11 101-35 24-24 36-56 36-98 0-42-22-85-65-129l-178-171c-4-4-8-5-13-5z"/>
<glyph glyph-name="jpy" unicode="&#49;" d="M282 73l-50 0c-2 0-4 1-6 3-2 1-3 4-3 6l0 95-82 0c-2 0-5 0-6 2-2 2-3 4-3 7l0 29c0 3 1 5 3 7 1 1 4 2 6 2l82 0 0 25-82 0c-2 0-5 0-6 2-2 2-3 4-3 7l0 29c0 3 1 5 3 7 1 2 4 3 6 3l61 0-92 165c-1 3-1 6 0 9 2 3 5 4 8 4l56 0c3 0 6-1 8-5l62-121c3-7 9-19 16-36 1 5 4 11 8 20 4 8 7 14 8 17l55 120c1 4 4 5 8 5l55 0c3 0 5-1 7-4 2-3 2-6 1-9l-90-165 62 0c2 0 4-1 6-3 2-2 3-4 3-7l0-29c0-3-1-5-3-7-2-2-4-2-6-2l-83 0 0-25 83 0c2 0 4-1 6-2 2-2 3-4 3-7l0-29c0-3-1-5-3-7-2-2-4-2-6-2l-83 0 0-95c0-2-1-4-3-6-2-2-4-3-6-3z"/>
<glyph glyph-name="laptop" unicode="&#50;" d="M101 146c-13 0-24 5-33 14-9 9-13 19-13 32l0 201c0 13 4 23 13 32 9 9 20 14 33 14l310 0c13 0 24-5 33-14 9-9 13-19 13-32l0-201c0-13-4-23-13-32-9-9-20-14-33-14z m-10 247l0-201c0-2 1-5 3-6 2-2 4-3 7-3l310 0c3 0 5 1 7 3 2 1 3 4 3 6l0 201c0 3-1 5-3 7-2 1-4 2-7 2l-310 0c-3 0-5-1-7-2-2-2-3-4-3-7z m394-265l45 0 0-27c0-8-4-15-13-20-9-5-20-8-32-8l-458 0c-12 0-23 3-32 8-9 5-13 12-13 20l0 27z m-206-27c3 0 4 1 4 4 0 3-1 5-4 5l-46 0c-3 0-4-2-4-5 0-3 1-4 4-4z"/>
<glyph glyph-name="list-alt" unicode="&#52;" d="M110 174l0-19c0-2-1-4-3-6-2-2-4-3-6-3l-19 0c-2 0-4 1-6 3-2 2-3 4-3 6l0 19c0 2 1 4 3 6 2 2 4 3 6 3l19 0c2 0 4-1 6-3 2-2 3-4 3-6z m0 73l0-18c0-3-1-5-3-7-2-2-4-3-6-3l-19 0c-2 0-4 1-6 3-2 2-3 4-3 7l0 18c0 2 1 4 3 6 2 2 4 3 6 3l19 0c2 0 4-1 6-3 2-2 3-4 3-6z m0 73l0-18c0-3-1-5-3-7-2-2-4-2-6-2l-19 0c-2 0-4 0-6 2-2 2-3 4-3 7l0 18c0 2 1 5 3 6 2 2 4 3 6 3l19 0c2 0 4-1 6-3 2-1 3-4 3-6z m329-146l0-19c0-2-1-4-3-6-2-2-4-3-6-3l-275 0c-2 0-4 1-6 3-2 2-3 4-3 6l0 19c0 2 1 4 3 6 2 2 4 3 6 3l275 0c2 0 4-1 6-3 2-2 3-4 3-6z m0 73l0-18c0-3-1-5-3-7-2-2-4-3-6-3l-275 0c-2 0-4 1-6 3-2 2-3 4-3 7l0 18c0 2 1 4 3 6 2 2 4 3 6 3l275 0c2 0 4-1 6-3 2-2 3-4 3-6z m0 73l0-18c0-3-1-5-3-7-2-2-4-2-6-2l-275 0c-2 0-4 0-6 2-2 2-3 4-3 7l0 18c0 2 1 5 3 6 2 2 4 3 6 3l275 0c2 0 4-1 6-3 2-1 3-4 3-6z m36-201l0 238c0 2 0 4-2 6-2 2-4 3-7 3l-420 0c-3 0-5-1-7-3-2-2-2-4-2-6l0-238c0-3 0-5 2-7 2-1 4-2 7-2l420 0c3 0 5 1 7 2 2 2 2 4 2 7z m37 311l0-311c0-13-4-23-13-32-9-9-20-14-33-14l-420 0c-13 0-24 5-33 14-9 9-13 19-13 32l0 311c0 12 4 23 13 32 9 9 20 13 33 13l420 0c13 0 24-4 33-13 9-9 13-20 13-32z"/>
<glyph glyph-name="link" unicode="&#53;" d="M434 165c0 7-2 14-8 19l-59 59c-5 6-12 8-20 8-8 0-14-3-20-9 0 0 2-2 5-5 3-3 5-5 6-6 1-1 3-3 5-6 2-2 3-4 3-7 1-2 1-5 1-8 0-7-2-14-8-19-5-5-11-8-19-8-3 0-5 0-8 1-2 1-5 2-7 4-3 1-4 3-6 4-1 1-3 3-6 6-3 3-4 5-5 5-6-5-9-12-9-20 0-8 2-15 8-20l58-59c6-5 12-8 20-8 7 0 14 3 19 8l42 41c6 6 8 12 8 20z m-201 201c0 8-2 14-8 19l-58 60c-6 5-12 8-20 8-7 0-14-3-19-8l-42-42c-6-5-8-12-8-19 0-8 2-14 8-19l59-60c5-5 12-8 20-8 8 0 14 3 20 9 0 1-2 3-5 6-3 3-5 5-6 6-1 1-3 3-5 5-2 3-3 5-3 7-1 3-1 5-1 8 0 8 2 14 8 20 5 5 11 8 19 8 3 0 5-1 8-1 2-1 5-2 7-4 3-2 4-3 6-4 1-1 3-3 6-6 3-3 4-5 5-6 6 6 9 13 9 21z m256-201c0-23-8-43-24-58l-42-42c-16-16-35-24-58-24-23 0-43 8-58 24l-59 60c-16 15-24 35-24 58 0 23 8 43 25 59l-25 25c-16-16-36-25-59-25-23 0-43 8-59 24l-59 60c-16 16-24 35-24 58 0 23 8 42 24 58l42 42c16 16 35 23 58 23 23 0 43-8 58-24l59-59c16-16 24-35 24-58 0-23-8-43-25-60l25-25c16 17 36 25 59 25 23 0 43-8 59-24l59-59c16-16 24-36 24-58z"/>
<glyph glyph-name="lightbulb-o" unicode="&#54;" d="M320 347c0-2-1-4-3-6-2-2-4-3-6-3-3 0-5 1-7 3-1 2-2 4-2 6 0 9-5 16-16 21-10 4-20 7-30 7-2 0-5 1-6 3-2 1-3 4-3 6 0 2 1 5 3 6 1 2 4 3 6 3 10 0 19-1 28-4 10-3 18-9 25-16 7-7 11-16 11-26z m46 0c0 14-4 27-10 39-7 12-15 21-26 29-10 7-22 13-35 17-13 5-26 7-39 7-13 0-26-2-39-7-13-4-25-10-35-17-11-8-19-17-26-29-6-12-10-25-10-39 0-19 7-36 20-51 2-2 5-5 8-9 4-5 7-8 9-10 25-29 38-57 40-85l66 0c2 28 15 56 40 85 2 2 5 5 9 10 3 4 6 7 8 9 13 15 20 32 20 51z m36 0c0-29-10-55-29-76-9-9-16-18-21-25-6-7-12-16-17-27-6-11-9-21-10-31 9-5 13-13 13-23 0-7-2-14-7-19 5-5 7-11 7-18 0-10-4-18-13-23 3-5 4-9 4-14 0-8-3-15-9-20-6-5-13-7-22-7-4-8-10-15-17-20-8-5-16-7-25-7-9 0-17 2-25 7-7 5-13 12-17 20-9 0-16 2-22 7-6 5-9 12-9 20 0 5 1 9 4 14-9 5-13 13-13 23 0 7 2 13 7 18-5 5-7 12-7 19 0 10 4 18 13 23-1 10-4 20-10 31-5 11-11 20-17 27-5 7-12 16-21 25-19 21-29 47-29 76 0 19 4 37 12 53 9 16 20 30 34 41 14 10 29 19 47 25 17 6 35 9 53 9 18 0 36-3 53-9 18-6 33-15 47-25 14-11 25-25 34-41 8-16 12-34 12-53z"/>
<glyph glyph-name="list-ul" unicode="&#55;" d="M110 110c0-16-6-28-16-39-11-11-24-16-39-16-15 0-28 5-39 16-11 11-16 23-16 39 0 15 5 28 16 39 11 10 24 16 39 16 15 0 28-6 39-16 10-11 16-24 16-39z m0 146c0-15-6-28-16-39-11-11-24-16-39-16-15 0-28 5-39 16-11 11-16 24-16 39 0 15 5 28 16 39 11 11 24 16 39 16 15 0 28-5 39-16 10-11 16-24 16-39z m402-119l0-55c0-2-1-4-3-6-2-2-4-3-6-3l-348 0c-2 0-4 1-6 3-2 2-3 4-3 6l0 55c0 3 1 5 3 7 2 1 4 2 6 2l348 0c2 0 4-1 6-2 2-2 3-4 3-7z m-402 265c0-15-6-28-16-39-11-10-24-16-39-16-15 0-28 6-39 16-11 11-16 24-16 39 0 16 5 28 16 39 11 11 24 16 39 16 15 0 28-5 39-16 10-11 16-23 16-39z m402-119l0-54c0-3-1-5-3-7-2-2-4-3-6-3l-348 0c-2 0-4 1-6 3-2 2-3 4-3 7l0 54c0 3 1 5 3 7 2 2 4 3 6 3l348 0c2 0 4-1 6-3 2-2 3-4 3-7z m0 147l0-55c0-3-1-5-3-7-2-1-4-2-6-2l-348 0c-2 0-4 1-6 2-2 2-3 4-3 7l0 55c0 2 1 4 3 6 2 2 4 3 6 3l348 0c2 0 4-1 6-3 2-2 3-4 3-6z"/>
<glyph glyph-name="long-arrow-right" unicode="&#56;" d="M494 257c0-3-1-5-3-7l-110-101c-3-3-6-3-10-2-3 2-5 5-5 8l0 64-357 0c-3 0-5 1-6 3-2 2-3 4-3 7l0 54c0 3 1 5 3 7 1 2 3 3 6 3l357 0 0 64c0 4 2 6 5 8 4 1 7 1 10-2l110-100c2-1 3-4 3-6z"/>
<glyph glyph-name="long-arrow-left" unicode="&#57;" d="M512 283l0-54c0-3-1-5-3-7-1-2-3-3-6-3l-357 0 0-64c0-4-2-6-5-8-4-1-7-1-10 2l-110 100c-2 1-3 4-3 6 0 3 1 5 3 7l110 101c3 3 6 3 10 2 3-2 5-5 5-8l0-64 357 0c3 0 5-1 6-3 2-2 3-4 3-7z"/>
<glyph glyph-name="map-marker" unicode="&#34;" d="M329 329c0 20-7 38-21 52-15 14-32 21-52 21-20 0-37-7-52-21-14-14-21-32-21-52 0-20 7-37 21-52 15-14 32-21 52-21 20 0 37 7 52 21 14 15 21 32 21 52z m73 0c0-21-3-38-9-51l-104-221c-3-6-8-11-14-15-6-4-12-5-19-5-7 0-13 1-19 5-6 4-11 9-14 15l-104 221c-6 13-9 30-9 51 0 41 14 75 43 104 28 28 63 42 103 42 40 0 75-14 103-42 29-29 43-63 43-104z"/>
<glyph glyph-name="newspaper-o" unicode="&#35;" d="M256 366l-110 0 0-110 110 0z m37-183l0-37-183 0 0 37z m0 219l0-183-183 0 0 183z m182-219l0-37-146 0 0 37z m0 73l0-37-146 0 0 37z m0 73l0-36-146 0 0 36z m0 73l0-36-146 0 0 36z m-438-274l0 274-37 0 0-274c0-5 2-9 5-13 4-3 8-5 13-5 5 0 10 2 13 5 4 4 6 8 6 13z m475 0l0 311-439 0 0-311c0-6-1-12-3-18l424 0c5 0 9 2 13 5 3 4 5 8 5 13z m37 347l0-347c0-15-6-28-16-39-11-11-24-16-39-16l-476 0c-15 0-28 5-39 16-10 11-16 24-16 39l0 311 74 0 0 36z"/>
<glyph glyph-name="paper-plane" unicode="&#36;" d="M504 509c6-5 9-11 8-18l-73-439c-1-6-4-10-10-13-2-2-5-2-8-2-3 0-5 0-7 1l-130 53-69-84c-3-5-8-7-14-7-2 0-4 0-6 1-4 1-7 4-9 7-2 3-3 6-3 10l0 100 247 303-306-265-113 47c-7 2-10 7-11 15 0 8 3 14 9 17l476 274c2 2 5 3 9 3 4 0 7-1 10-3z"/>
<glyph glyph-name="paper-plane-o" unicode="&#37;" d="M504 509c6-5 9-11 8-18l-73-439c-1-6-4-10-10-13-2-2-5-2-8-2-3 0-5 0-7 1l-151 61-85-93c-3-4-8-6-13-6-3 0-5 0-7 1-4 1-6 4-9 7-2 3-3 6-3 10l0 129-135 56c-7 2-10 7-11 15-1 8 2 13 9 17l476 274c6 4 13 4 19 0z m-98-428l63 378-409-237 96-39 246 183-136-228z"/>
<glyph glyph-name="phone" unicode="&#38;" d="M457 158c0-5-1-12-3-20-2-9-4-15-6-20-4-10-15-20-35-30-17-10-35-15-53-15-5 0-10 0-15 1-5 1-10 2-16 4-6 1-11 3-14 4-3 1-8 3-16 6-7 3-12 4-14 5-18 7-35 14-50 24-24 15-49 35-75 61-26 26-47 51-62 76-9 14-17 31-23 50-1 1-3 6-6 14-2 7-4 13-5 16-1 3-3 7-5 13-1 6-2 12-3 17-1 4-1 9-1 15 0 17 5 35 14 53 11 19 21 31 31 35 4 2 11 4 19 6 9 1 15 2 20 2 3 0 5 0 6 0 4-2 9-9 16-22 2-4 5-9 8-16 4-6 7-12 10-18 3-5 6-10 9-15 1-1 2-3 5-7 3-4 5-8 6-10 1-3 2-6 2-8 0-4-3-9-8-15-5-5-11-11-18-15-6-5-12-10-17-16-6-5-9-9-9-13 0-1 1-4 2-6 1-3 2-5 2-6 1-1 2-4 4-7 2-3 3-5 4-5 14-26 31-49 49-67 19-19 41-36 67-50 1 0 3-1 6-3 3-2 5-4 7-4 1-1 3-2 6-3 2-1 4-1 6-1 3 0 8 2 13 8 5 5 11 11 15 18 5 6 10 12 16 17 6 6 10 8 14 8 3 0 6 0 8-2 3-1 7-3 11-6 4-2 6-4 7-5 4-3 10-6 15-9 5-3 11-6 18-10 7-3 12-6 16-8 13-7 20-12 21-15 1-2 1-4 1-6z"/>
<glyph glyph-name="picture-o" unicode="&#39;" d="M165 347c0-15-6-28-16-38-11-11-24-16-39-16-16 0-28 5-39 16-11 10-16 23-16 38 0 16 5 29 16 39 11 11 23 16 39 16 15 0 28-5 39-16 10-10 16-23 16-39z m292-109l0-128-402 0 0 55 91 91 46-46 146 147z m28 201l-458 0c-2 0-4-1-6-3-2-2-3-4-3-6l0-348c0-2 1-4 3-6 2-2 4-3 6-3l458 0c2 0 4 1 6 3 2 2 3 4 3 6l0 348c0 2-1 4-3 6-2 2-4 3-6 3z m45-9l0-348c0-12-4-23-13-32-9-9-20-13-32-13l-458 0c-12 0-23 4-32 13-9 9-13 20-13 32l0 348c0 12 4 23 13 32 9 9 20 13 32 13l458 0c12 0 23-4 32-13 9-9 13-20 13-32z"/>
<glyph glyph-name="play" unicode="&#40;" d="M450 247l-379-211c-5-2-8-2-11-1-4 2-5 6-5 11l0 420c0 5 1 9 5 11 3 1 6 1 11-1l379-211c5-3 7-6 7-9 0-3-2-6-7-9z"/>
<glyph glyph-name="share-alt" unicode="&#42;" d="M384 219c25 0 47-8 65-26 18-18 26-40 26-65 0-25-8-47-26-65-18-18-40-26-65-26-25 0-47 8-65 26-18 18-26 40-26 65 0 2 0 6 0 10l-103 51c-17-16-38-24-62-24-25 0-47 8-65 26-18 18-26 40-26 65 0 25 8 47 26 65 18 18 40 26 65 26 24 0 45-8 62-24l103 51c0 4 0 8 0 10 0 25 8 47 26 65 18 18 40 26 65 26 25 0 47-8 65-26 18-18 26-40 26-65 0-25-8-47-26-65-18-18-40-26-65-26-24 0-45 8-62 24l-103-51c0-4 0-8 0-10 0-2 0-6 0-10l103-51c17 16 38 24 62 24z"/>
<glyph glyph-name="share" unicode="&#43;" d="M512 329c0-5-2-9-5-13l-147-146c-3-4-8-5-13-5-5 0-9 1-12 5-4 4-6 8-6 13l0 73-64 0c-19 0-35-1-50-2-15-1-29-3-44-6-15-3-27-7-38-12-11-5-21-12-30-20-9-8-17-18-23-29-6-11-11-24-14-39-3-16-5-33-5-52 0-10 1-22 2-35 0-1 0-4 0-7 1-3 1-6 1-7 0-3-1-6-2-8-2-1-4-2-7-2-3 0-6 1-8 4-1 2-3 4-4 7-1 2-2 5-4 8-1 4-2 6-3 7-24 54-36 97-36 129 0 38 5 70 15 95 31 77 114 115 250 115l64 0 0 73c0 5 2 10 6 13 3 4 7 6 12 6 5 0 10-2 13-6l147-146c3-4 5-8 5-13z"/>
<glyph glyph-name="shield" unicode="&#44;" d="M384 238l0 183-128 0 0-325c23 12 43 25 61 39 45 35 67 69 67 103z m55 219l0-219c0-17-3-33-10-49-6-16-14-30-23-43-10-12-21-24-34-36-13-12-25-22-36-30-11-8-23-15-35-22-12-7-20-12-25-14-5-2-10-4-13-6-2-1-4-1-7-1-3 0-5 0-7 1-3 2-8 4-13 6-5 2-13 7-25 14-12 7-24 14-35 22-11 8-23 18-36 30-13 12-24 24-34 36-9 13-17 27-23 43-7 16-10 32-10 49l0 219c0 5 2 9 6 13 3 4 7 5 12 5l330 0c5 0 9-1 12-5 4-4 6-8 6-13z"/>
<glyph glyph-name="sliders" unicode="&#45;" d="M137 110l0-37-100 0 0 37z m101 36c5 0 9-2 13-5 3-4 5-8 5-13l0-73c0-5-2-9-5-13-4-4-8-5-13-5l-73 0c-5 0-10 1-13 5-4 4-6 8-6 13l0 73c0 5 2 9 6 13 3 3 8 5 13 5z m45 110l0-37-246 0 0 37z m-182 146l0-36-64 0 0 36z m374-292l0-37-210 0 0 37z m-274 329c5 0 9-2 13-6 4-3 5-7 5-12l0-74c0-5-1-9-5-12-4-4-8-6-13-6l-73 0c-5 0-9 2-13 6-3 3-5 7-5 12l0 74c0 5 2 9 5 12 4 4 8 6 13 6z m183-146c5 0 9-2 13-6 3-3 5-8 5-13l0-73c0-5-2-9-5-13-4-3-8-5-13-5l-73 0c-5 0-9 2-13 5-4 4-5 8-5 13l0 73c0 5 1 10 5 13 4 4 8 6 13 6z m91-37l0-37-64 0 0 37z m0 146l0-36-246 0 0 36z"/>
<glyph glyph-name="star-o" unicode="&#58;" d="M343 225l88 85-121 18-54 109-54-109-121-18 88-85-21-120 108 57 108-57z m151 102c0-4-3-9-8-14l-103-101 24-143c0-1 0-3 0-5 0-10-3-15-11-15-4 0-8 2-12 4l-128 67-128-67c-4-2-8-4-12-4-4 0-7 2-9 5-2 2-3 6-3 10 0 1 0 3 1 5l24 143-104 101c-4 6-7 10-7 14 0 7 6 12 16 13l144 21 64 130c4 8 8 12 14 12 6 0 10-4 14-12l64-130 144-21c10-1 16-6 16-13z"/>
<glyph glyph-name="star" unicode="&#59;" d="M494 327c0-4-3-9-8-14l-103-101 24-143c0-1 0-3 0-5 0-4-1-8-3-10-2-3-4-5-8-5-4 0-8 2-12 4l-128 67-128-67c-4-2-8-4-12-4-4 0-7 2-9 5-2 2-3 6-3 10 0 1 0 3 1 5l24 143-104 101c-4 6-7 10-7 14 0 7 6 12 16 13l144 21 64 130c4 8 8 12 14 12 6 0 10-4 14-12l64-130 144-21c10-1 16-6 16-13z"/>
<glyph glyph-name="star-half-o" unicode="&#60;" d="M357 239l74 71-102 15-19 3-9 17-45 92 0-275 17-9 91-48-17 101-4 19z m129 74l-103-101 24-143c1-6 1-11-2-14-2-4-5-6-9-6-4 0-7 2-12 4l-128 67-128-67c-5-2-8-4-12-4-4 0-7 2-9 6-3 3-3 8-2 14l24 143-104 101c-6 7-8 12-6 17 2 6 7 9 15 10l144 21 64 130c4 8 8 12 14 12 5 0 10-4 14-12l64-130 144-21c8-1 13-4 15-10 2-5 0-10-7-17z"/>
<glyph glyph-name="tag" unicode="&#61;" d="M165 384c0 10-4 19-11 26-7 7-16 11-26 11-10 0-19-4-26-11-7-7-11-16-11-26 0-10 4-19 11-26 7-7 16-11 26-11 10 0 19 4 26 11 7 7 11 16 11 26z m304-165c0-10-3-18-10-25l-140-141c-8-7-17-10-26-10-11 0-19 3-26 10l-204 205c-8 7-14 16-19 29-5 12-7 23-7 33l0 119c0 10 3 18 10 26 8 7 16 10 26 10l119 0c10 0 21-2 33-7 13-5 22-11 30-19l204-204c7-7 10-16 10-26z"/>
<glyph glyph-name="tasks" unicode="&#62;" d="M293 110l182 0 0 36-182 0z m-110 146l292 0 0 37-292 0z m183 146l109 0 0 37-109 0z m146-237l0-74c0-5-2-9-5-12-4-4-8-6-13-6l-476 0c-5 0-9 2-13 6-3 3-5 7-5 12l0 74c0 5 2 9 5 12 4 4 8 6 13 6l476 0c5 0 9-2 13-6 3-3 5-7 5-12z m0 146l0-73c0-5-2-10-5-13-4-4-8-6-13-6l-476 0c-5 0-9 2-13 6-3 3-5 8-5 13l0 73c0 5 2 9 5 13 4 3 8 5 13 5l476 0c5 0 9-2 13-5 3-4 5-8 5-13z m0 146l0-73c0-5-2-9-5-13-4-3-8-5-13-5l-476 0c-5 0-9 2-13 5-3 4-5 8-5 13l0 73c0 5 2 9 5 13 4 4 8 5 13 5l476 0c5 0 9-1 13-5 3-4 5-8 5-13z"/>
<glyph glyph-name="tablet" unicode="&#63;" d="M274 110c0 5-2 9-5 13-4 3-8 5-13 5-5 0-9-2-13-5-3-4-5-8-5-13 0-5 2-10 5-13 4-4 8-6 13-6 5 0 9 2 13 6 3 3 5 8 5 13z m110 45l0 275c0 2-1 4-3 6-2 2-4 3-6 3l-238 0c-2 0-4-1-6-3-2-2-3-4-3-6l0-275c0-2 1-4 3-6 2-2 4-3 6-3l238 0c2 0 4 1 6 3 2 2 3 4 3 6z m37 275l0-311c0-13-5-23-14-32-9-9-20-14-32-14l-238 0c-12 0-23 5-32 14-9 9-14 19-14 32l0 311c0 12 5 23 14 32 9 9 20 13 32 13l238 0c12 0 23-4 32-13 9-9 14-20 14-32z"/>
<glyph glyph-name="trash-o" unicode="&#64;" d="M201 302l0-165c0-3-1-5-2-6-2-2-4-3-7-3l-18 0c-3 0-5 1-7 3-2 1-2 3-2 6l0 165c0 2 0 5 2 6 2 2 4 3 7 3l18 0c3 0 5-1 7-3 1-1 2-4 2-6z m73 0l0-165c0-3-1-5-2-6-2-2-4-3-7-3l-18 0c-3 0-5 1-7 3-1 1-2 3-2 6l0 165c0 2 1 5 2 6 2 2 4 3 7 3l18 0c3 0 5-1 7-3 1-1 2-4 2-6z m73 0l0-165c0-3 0-5-2-6-2-2-4-3-7-3l-18 0c-3 0-5 1-7 3-1 1-2 3-2 6l0 165c0 2 1 5 2 6 2 2 4 3 7 3l18 0c3 0 5-1 7-3 2-1 2-4 2-6z m37-207l0 271-256 0 0-271c0-4 1-8 2-12 1-3 3-6 4-7 2-2 3-3 3-3l238 0c0 0 1 1 3 3 1 1 3 4 4 7 1 4 2 8 2 12z m-192 307l128 0-14 34c-1 1-3 2-5 3l-90 0c-2-1-4-2-5-3z m265-9l0-18c0-3-1-5-2-7-2-1-4-2-7-2l-27 0 0-271c0-16-5-30-14-41-9-12-20-17-32-17l-238 0c-12 0-23 5-32 16-9 11-14 25-14 41l0 272-27 0c-3 0-5 1-7 2-1 2-2 4-2 7l0 18c0 3 1 5 2 7 2 1 4 2 7 2l88 0 20 48c3 7 8 13 16 18 7 5 15 7 22 7l92 0c7 0 15-2 22-7 8-5 13-11 16-18l20-48 88 0c3 0 5-1 7-2 1-2 2-4 2-7z"/>
<glyph glyph-name="trash" unicode="&#91;" d="M201 119l0 201c0 3-1 5-2 7-2 1-4 2-7 2l-18 0c-3 0-5-1-7-2-2-2-2-4-2-7l0-201c0-3 0-5 2-7 2-1 4-2 7-2l18 0c3 0 5 1 7 2 1 2 2 4 2 7z m73 0l0 201c0 3-1 5-2 7-2 1-4 2-7 2l-18 0c-3 0-5-1-7-2-1-2-2-4-2-7l0-201c0-3 1-5 2-7 2-1 4-2 7-2l18 0c3 0 5 1 7 2 1 2 2 4 2 7z m73 0l0 201c0 3 0 5-2 7-2 1-4 2-7 2l-18 0c-3 0-5-1-7-2-1-2-2-4-2-7l0-201c0-3 1-5 2-7 2-1 4-2 7-2l18 0c3 0 5 1 7 2 2 2 2 4 2 7z m-155 283l128 0-14 34c-1 1-3 2-5 3l-90 0c-2-1-4-2-5-3z m265-9l0-18c0-3-1-5-2-7-2-1-4-2-7-2l-27 0 0-271c0-16-5-30-14-41-9-12-20-17-32-17l-238 0c-12 0-23 5-32 16-9 11-14 25-14 41l0 272-27 0c-3 0-5 1-7 2-1 2-2 4-2 7l0 18c0 3 1 5 2 7 2 1 4 2 7 2l88 0 20 48c3 7 8 13 16 18 7 5 15 7 22 7l92 0c7 0 15-2 22-7 8-5 13-11 16-18l20-48 88 0c3 0 5-1 7-2 1-2 2-4 2-7z"/>
<glyph glyph-name="twitter" unicode="&#96;" d="M481 395c-13-18-28-34-46-47 0-3 0-7 0-12 0-25-3-50-11-74-7-25-18-49-33-71-14-23-32-43-52-61-21-17-45-31-74-41-29-11-60-16-92-16-52 0-99 14-142 42 7-1 14-2 22-2 43 0 81 14 115 40-20 0-38 6-54 18-16 12-27 27-33 46 7-1 13-2 18-2 8 0 16 1 24 4-21 4-39 15-53 31-14 17-21 37-21 59l0 1c13-7 27-11 42-11-13 8-23 19-30 32-8 14-11 29-11 44 0 17 4 33 12 47 23-28 51-51 84-68 33-17 69-27 107-29-2 8-3 15-3 22 0 25 9 47 27 65 18 18 40 27 66 27 26 0 49-10 67-29 21 4 40 11 59 22-7-22-21-39-41-51 18 2 35 7 53 14z"/>
<glyph glyph-name="university" unicode="&#123;" d="M238 512l274-110 0-36-37 0c0-5-2-10-5-13-4-4-9-6-14-6l-436 0c-6 0-10 2-14 6-4 3-6 8-6 13l-37 0 0 36z m-201-183l73 0 0-219 36 0 0 219 73 0 0-219 37 0 0 219 73 0 0-219 37 0 0 219 73 0 0-219 17 0c5 0 10-2 14-6 3-3 5-8 5-13l0-18-475 0 0 18c0 5 2 10 6 13 4 4 8 6 14 6l17 0z m455-274c6 0 10-2 14-6 4-3 6-7 6-12l0-37-549 0 0 37c0 5 2 9 6 12 4 4 9 6 14 6z"/>
<glyph glyph-name="android-add" unicode="&#124;" d="M416 235l-139 0 0-139-42 0 0 139-139 0 0 42 139 0 0 139 42 0 0-139 139 0z"/>
<glyph glyph-name="alert" unicode="&#125;" d="M320 32l-128 0 0 96 128 0z m-16 160l-96 0-16 288 128 0z"/>
<glyph glyph-name="alert-circled" unicode="&#126;" d="M477 90l-207 349c-3 5-8 9-14 9-6 0-11-4-14-9l-207-349c-2-5-4-13-2-18 3-5 9-8 14-8l418 0c5 0 11 3 14 8 3 5 1 13-2 18z m-189 22l-64 0 0 48 64 0z m0 80l-64 0 0 144 64 0z"/>
<glyph glyph-name="android-arrow-forward" unicode="&#92;" d="M85 235l260 0-120-120 31-30 171 171-171 171-30-30 119-120-260 0z"/>
<glyph glyph-name="android-arrow-up" unicode="&#57344;" d="M277 85l0 260 120-120 30 31-171 171-171-171 30-30 120 119 0-260z"/>
<glyph glyph-name="android-arrow-back" unicode="&#57345;" d="M427 277l-260 0 120 120-31 30-171-171 171-171 30 30-119 120 260 0z"/>
<glyph glyph-name="android-arrow-down" unicode="&#57346;" d="M277 427l0-260 120 120 30-31-171-171-171 171 30 30 120-119 0 260z"/>
<glyph glyph-name="android-attach" unicode="&#57347;" d="M341 384l0-235c0-47-38-85-85-85-47 0-85 38-85 85l0 246c0 30 23 53 53 53 30 0 53-23 53-53l0-246c0-11-9-21-21-21-12 0-21 10-21 21l0 203-32 0 0-203c0-30 23-53 53-53 30 0 53 23 53 53l0 246c0 47-38 85-85 85-47 0-85-38-85-85l0-246c0-65 52-117 117-117 65 0 117 52 117 117l0 235z"/>
<glyph glyph-name="android-add-circle" unicode="&#57348;" d="M256 464c-115 0-208-93-208-208 0-115 93-208 208-208 115 0 208 93 208 208 0 115-93 208-208 208z m107-229l-86 0 0-86-42 0 0 86-86 0 0 42 86 0 0 86 42 0 0-86 86 0z"/>
<glyph glyph-name="android-checkbox" unicode="&#57349;" d="M405 448l-298 0c-24 0-43-19-43-43l0-298c0-24 19-43 43-43l298 0c24 0 43 19 43 43l0 298c0 24-19 43-43 43z m-192-299l-106 107 30 30 76-77 162 162 30-30z"/>
<glyph glyph-name="android-chat" unicode="&#57350;" d="M392 448l-334 0c-5 0-10-4-10-8l0-214c0-5 5-9 10-9l57 0 0-89 90 89 187 0c4 0 7 4 7 9l0 214c0 4-3 8-7 8z m64-63l-32 0 0-167c0-16-7-26-25-26l-181 0-39-39 130 0 90-89 0 89 57 0c5 0 8 4 8 9l0 214c0 4-3 9-8 9z"/>
<glyph glyph-name="android-checkmark-circle" unicode="&#57351;" d="M171 296l-29-30 93-93 208 208-29 29-179-178z m251-40c0-92-74-166-166-166-92 0-166 74-166 166 0 92 74 166 166 166 16 0 31-2 46-6l32 32c-24 11-50 16-78 16-114 0-208-94-208-208 0-114 94-208 208-208 114 0 208 94 208 208z"/>
<glyph glyph-name="android-checkbox-outline" unicode="&#57352;" d="M169 297l-30-30 96-96 213 213-30 30-183-183z m236-190l-298 0 0 298 213 0 0 43-213 0c-24 0-43-19-43-43l0-298c0-24 19-43 43-43l298 0c24 0 43 19 43 43l0 170-43 0z"/>
<glyph glyph-name="android-close" unicode="&#57353;" d="M405 375l-30 30-119-119-119 119-30-30 119-119-119-119 30-30 119 119 119-119 30 30-119 119z"/>
<glyph glyph-name="android-call" unicode="&#57354;" d="M427 181c-27 0-53 5-76 12-8 2-16 1-21-5l-47-47c-61 31-110 80-141 141l47 47c5 5 7 13 5 21-8 24-13 50-13 77 0 11-9 21-21 21l-75 0c-11 0-21-10-21-21 0-201 162-363 363-363 11 0 21 10 21 21l0 75c0 12-10 21-21 21z"/>
<glyph glyph-name="android-camera" unicode="&#57355;" d="M319 232c0-35-28-63-63-63-35 0-63 28-63 63 0 35 28 63 63 63 35 0 63-28 63-63z m121 184l-88 0-32 32-128 0-32-32-88 0c-22 0-40-18-40-40l0-272c0-22 18-40 40-40l368 0c22 0 40 18 40 40l0 272c0 22-18 40-40 40z m-184-296c-62 0-112 50-112 112 0 62 50 112 112 112 62 0 112-50 112-112 0-62-50-112-112-112z"/>
<glyph glyph-name="android-done-all" unicode="&#57356;" d="M388 372l-31 31-140-139 31-31z m93 31l-233-231-92 91-30-31 122-123 264 263z m-481-171l123-123 31 31-122 123z"/>
<glyph glyph-name="android-done" unicode="&#57357;" d="M186 172l-90 91-32-31 122-122 262 261-32 31z"/>
<glyph glyph-name="android-people" unicode="&#57358;" d="M337 280c34 0 62 27 62 60 0 33-28 60-62 60-33 0-61-27-61-60 0-33 28-60 61-60z m-162 0c33 0 61 27 61 60 0 33-28 60-61 60-34 0-62-27-62-60 0-33 28-60 62-60z m0-44c-48 0-143-23-143-70l0-54 288 0 0 54c0 47-98 70-145 70z m162-11c-6 0-10 0-17-1 23-17 32-28 32-58l0-54 128 0 0 54c0 47-95 59-143 59z"/>
<glyph glyph-name="android-person" unicode="&#57359;" d="M256 256c53 0 96 43 96 96 0 53-43 96-96 96-53 0-96-43-96-96 0-53 43-96 96-96z m0-48c-64 0-192-32-192-96l0-48 384 0 0 48c0 64-128 96-192 96z"/>
<glyph glyph-name="android-person-add" unicode="&#57360;" d="M304 256c53 0 96 43 96 96 0 53-43 96-96 96-53 0-96-43-96-96 0-53 43-96 96-96z m0-48c-64 0-192-32-192-96l0-48 384 0 0 48c0 64-128 96-192 96z m-192 80l0 64-32 0 0-64-64 0 0-32 64 0 0-64 32 0 0 64 64 0 0 32z"/>
<glyph glyph-name="android-refresh" unicode="&#57361;" d="M256 124c-73 0-132 59-132 132 0 73 59 132 132 132 36 0 69-15 92-40l-70-70 154 0 0 154-52-52c-32 32-76 52-124 52-97 0-176-79-176-176 0-97 78-176 176-176 81 0 148 54 169 128l-46 0c-19-50-67-84-123-84z"/>
<glyph glyph-name="android-time" unicode="&#57362;" d="M256 469c-118 0-213-96-213-213 0-117 95-213 213-213 118 0 213 96 213 213 0 117-96 213-213 213z m0-383c-94 0-170 76-170 170 0 94 76 170 170 170 94 0 170-76 170-170 0-94-76-170-170-170z m11 276l-32 0 0-127 112-67 16 26-96 57z"/>
<glyph glyph-name="close-round" unicode="&#57363;" d="M438 125l-131 131 131 131c14 14 14 36 0 50-15 15-37 15-51 0l-131-130-131 130c-14 15-36 15-50 0-15-14-15-36 0-50l130-131-130-131c-15-14-15-36 0-51 14-14 36-14 50 0l131 131 131-131c14-14 36-14 51 0 14 15 14 37 0 51z"/>
<glyph glyph-name="document" unicode="&#57364;" d="M399 343c0 3-2 5-3 7l-84 92c-2 2-4 3-6 4-3 1-7 2-10 2l-160 0c-12 0-23-10-23-23l0-336c0-13 11-25 23-25l243 0c13 0 22 12 22 25l0 245c0 3-1 6-2 9z m-93 58l58-64-58 0z m-161-306l0 320 129 0 0-81c0-15 13-29 28-29l67 0 0-210z"/>
<glyph glyph-name="document-text" unicode="&#57365;" d="M399 343c-1 2-2 4-4 6l-84 92c-2 2-4 3-6 4-3 2-6 3-10 3l-160 0c-12 0-22-11-22-24l0-336c0-13 10-24 22-24l243 0c13 0 23 11 23 24l0 245c0 3-1 7-2 10z m-238-10c0 2 1 2 3 2l71 0c1 0 3 0 3-2l0-10c0-2-2-4-3-4l-71 0c-2 0-3 2-3 4z m0-128c0 2 1 2 3 2l122 0c2 0 3 0 3-2l0-10c0-2-1-4-3-4l-122 0c-2 0-3 2-3 4z m160-74c0-2-1-4-3-4l-154 0c-2 0-3 2-3 4l0 10c0 2 1 2 3 2l154 0c2 0 3 0 3-2z m32 128c0-2-1-4-3-4l-186 0c-2 0-3 2-3 4l0 10c0 2 1 2 3 2l186 0c2 0 3 0 3-2z m-47 75c-6 0-11 6-11 12l0 66 71-78z"/>
<glyph glyph-name="earth" unicode="&#57366;" d="M357 386c-2 4-9 12-14 14-6 1-2-5-2-7-2-1-4-2-5-4-1-1 2-6 6-4 5 2 2-2 5-9 4-7 10-7 13-5 3 3-1 12-3 15z m19-45c0 0 0 0 0 0 0 0 0 0 0 0z m59-26c0 0-2 0 0 0z m-179 165c-124 0-224-100-224-224 0-124 100-224 224-224 124 0 224 100 224 224 0 124-100 224-224 224z m-83-397c-5 3-9 7-11 16-4 20 0 32 18 44 9 5 10 12 17 19 2 2 7 11 10 11 3 1 13 3 15 7 4 5 12 27 16 29 6 4 14 16 8 23-7 9-16 9-26 14-8 4-11 22-17 28-12 12-30 19-45 27-8 3-8 4-14-2-8-8-20 2-21 10 0 3-4 19-2 20 18 11-8 8-10 14-6 14 13 26 25 28 14 1 17-22 22-20 3 1 3 12 3 15 1 8 4 9 12 12 9 3 16 7 25 9 11 3 21 1 29 9 4 2 7-2 11-3 8-1 9 11 9 16 0 5 1 9-4 14-8 6-20 0-26-6-7-7-16-6-14 6 1 4 11 9 14 12 4 2 6-3 11-2 6 2 9-4 17-4 3 0 14 6 8 19 1 0 2 0 3 0 2 0 4 0 6 0 2-9-6-17-2-28 9-21 16-3 25 7 3 3 4 3 9 3 3 1 7 10 8 12 20-5 40-13 57-24-7-1-9 2-9-7 0-4 0-14 5-14 8-1 7-7 15-8 7-1 2-8 5-14 4-11-19-14-24-15-14-5 6-25 15-22 3 0 13 2 13 5 0 0-2 11-1 12 2 2 5 3 11 0 13-8 20-26 36-30 2 0 6 0 8-2 3-3 8-8 2-8-9 2-14-1-22 5-7 6-12 11-22 11-9 0-17 4-26 2-5-1-10-3-15-4-5-2-6-10-10-11-20-4-15-23-19-38-1-5-6-21-1-26 9-9 20-21 33-23 7-1 23 5 28-3 2-4 8 4 9 0 4-11-4-18-4-29 0-15 9-20-4-34-13-13-4-31-11-47-5-8-5-20-11-24-14-8-28-15-43-20-27-9-55-12-83-8-15 1-29 5-43 10-4 1-7 2-10 3-3 1-5 2-8 4z m-41 27c-1 0-1 0-2 1-3 3-7 6-10 9-3 4-6 7-9 11-1 0-1 0-1 0 0 1-1 1-1 2-52 63-60 154-16 224 6-6-4-18 7-26 5-4 10-2 9-9-1-6 5-6 6-12 3-12 20-19 10-33-9-12-17-26-10-42 2-6 8-12 12-17 8-8 8-3 8-13 0-4 5-9 5-12-2-8-3-15-4-23-2-29-1-57 21-79-8 5-16 11-23 17-1 0-2 1-2 2z"/>
<glyph glyph-name="edit" unicode="&#57367;" d="M163 72l-91 91 251 250 90-90z m309 352l-48 48c-12 11-32 11-45-2l-45-45 91-91 45 45c13 13 13 33 2 45z m-408-275l-32-117 117 32z"/>
<glyph glyph-name="chevron-right" unicode="&#57368;" d="M298 256l-167 174c-4 4-4 11 0 16l30 30c5 5 12 5 16 1l204-213c2-2 3-5 3-8 0-3-1-6-3-8l-204-213c-4-4-11-4-16 0l-30 31c-4 4-4 11 0 16z"/>
<glyph glyph-name="chevron-left" unicode="&#57369;" d="M214 256l167 174c4 4 4 11 0 16l-30 30c-4 5-11 5-16 1l-204-213c-2-2-3-5-3-8 0-3 1-6 3-8l204-213c5-4 12-4 16 0l30 31c4 4 4 11 0 16z"/>
<glyph glyph-name="chevron-down" unicode="&#57370;" d="M256 214l174 167c5 4 12 4 16 0l31-30c4-5 4-12 0-16l-213-204c-2-2-5-3-8-3-3 0-6 1-8 3l-213 204c-4 4-4 11 0 16l31 30c4 4 12 4 16 0z"/>
<glyph glyph-name="chevron-up" unicode="&#57371;" d="M256 298l174-167c5-4 12-4 16 0l31 30c4 4 4 11 0 16l-213 204c-2 2-5 3-8 3-3 0-6-1-8-3l-213-204c-4-5-4-12 0-16l31-30c4-4 12-4 16 0z"/>
<glyph glyph-name="images" unicode="&#57372;" d="M458 372l-83 4-5 54c-1 11-11 19-23 18l-296-24c-11-1-20-11-19-22l21-236c1-11 11-19 23-18l15 1-2-46c-1-12 9-23 22-23l330-16c14-1 24 9 25 21l14 263c1 13-9 23-22 24z m-355-6l-7-134-18-25-16 178c0 0 0 0 0 0 0 1 0 1 0 1 1 5 4 9 10 9l261 22c5 0 9-3 10-8 0 0 0 0 0-1 0 0 1 0 1 0l2-31-219 11c-13 0-24-9-24-22z m334-236l-47 55-27 33c-3 2-7 5-11 5-4 0-8-1-11-4l-17-12c-3-2-6-3-9-3-4 0-7 1-10 4 0 0-2 2-3 3l-43 49c-3 4-8 6-14 7-5 0-11-3-14-6l-102-109-6-7 0 7 7 128 3 63c0 1 0 1 0 1 0 0 0 0 0 0 1 6 6 10 12 9l204-9 29-2 58-3c6 0 10-4 11-10 0 0 0 0 0 0 0-1 0-1 0-1z m-64 120c20 0 35 15 35 35 0 19-15 35-35 35-19 0-35-16-35-35 0-20 16-35 35-35z"/>
<glyph glyph-name="image" unicode="&#57373;" d="M368 288c27 0 48 21 48 48 0 26-21 48-48 48-26 0-48-22-48-48 0-27 22-48 48-48z m84 160l-392 0c-16 0-28-13-28-28l0-328c0-15 12-28 28-28l392 0c16 0 28 13 28 28l0 328c0 15-12 28-28 28z m-103-198c-3 4-8 6-13 6-5 0-9-2-13-5l-18-16c-4-3-7-5-12-5-4 0-8 2-11 4-1 1-3 3-4 4l-54 59c-4 4-10 7-17 7-6 0-13-3-16-8l-127-152 0 260c1 7 6 12 13 12l358 0c7 0 12-5 13-12l0-260z"/>
<glyph glyph-name="ios-contact-outline" unicode="&#57375;" d="M256 464c-115 0-208-93-208-208 0-115 93-208 208-208 115 0 208 93 208 208 0 115-93 208-208 208z m0-17c105 0 191-86 191-191 0-47-17-89-45-122-20 8-66 24-93 32-2 1-2 1-2 11 0 8 3 16 6 23 4 7 8 20 10 31 4 5 10 15 13 33 3 17 2 22 0 28 0 1-1 1-1 2-1 3 0 23 3 38 2 11 0 33-15 52-9 11-26 26-58 28l-18 0c-31-2-48-17-58-28-14-19-17-41-15-52 3-15 4-35 3-38 0-1 0-2 0-2-2-6-4-12-1-28 4-18 10-28 14-33 2-11 6-24 9-31 3-6 4-13 4-24 0-10 0-10-3-11-28-8-72-24-90-32-28 34-45 76-45 123 0 105 86 191 191 191z"/>
<glyph glyph-name="ios-search-strong" unicode="&#57378;" d="M345 214c15 24 23 52 23 82 0 84-68 152-152 152-84 0-152-68-152-152 0-84 68-153 152-153 31 0 59 9 83 25l7 5 108-109 34 34-108 109z m-44 167c23-23 36-53 36-85 0-32-13-63-36-85-22-23-52-35-85-35-32 0-62 12-85 35-22 22-35 53-35 85 0 32 13 62 35 85 23 22 53 35 85 35 33 0 63-13 85-35z"/>
<glyph glyph-name="person" unicode="&#57379;" d="M448 64c0 0 0 26-2 40-2 11-17 25-81 49-63 23-60 12-60 55 0 27 15 11 24 64 3 21 6 7 13 40 4 17-2 19-1 27 0 8 1 16 3 33 1 21-18 76-88 76-70 0-89-55-87-76 1-17 2-25 3-33 0-8-6-10-2-27 7-33 10-19 14-40 9-53 23-37 23-64 0-43 4-32-60-55-64-24-79-38-81-49-2-14-2-40-2-40z"/>
<glyph glyph-name="person-add" unicode="&#57380;" d="M429 184l0 51 51 0 0 42-51 0 0 51-42 0 0-51-51 0 0-42 51 0 0-51z m-13-120c0 0 0 26-2 40-2 11-17 25-81 49-63 23-60 12-60 55 0 27 15 11 24 64 3 21 6 7 13 40 4 17-2 19-1 27 0 8 1 16 3 33 1 21-18 76-88 76-70 0-89-55-87-76 1-17 2-25 3-33 0-8-6-10-2-27 7-33 10-19 14-40 9-53 23-37 23-64 0-43 4-32-60-55-64-24-79-38-81-49-2-14-2-40-2-40z"/>
<glyph glyph-name="person-stalker" unicode="&#57381;" d="M425 187c-41 16-39 10-39 39 0 18 10 12 16 47 2 14 4 5 9 28 2 11-2 12-1 18 0 6 1 11 2 22 1 15-12 52-58 52-46 0-58-37-57-52 1-11 1-16 2-22 0-6-4-7-1-18 4-23 6-13 9-28 6-35 15-29 15-47 0-14 3-19-15-28 5-2 12-4 19-7 55-21 53-41 55-50 1-7 1-59 1-77l98 0c0 0 0 80-1 90-2 7-11 17-54 33z m-68-123c0 0 0 14 0 30 0 19-1 40-2 47-1 9-14 22-68 43-8 2-14 5-20 7-33 12-31 15-31 48 0 24 12 8 20 54 3 19 5 6 12 36 3 15-3 16-2 23 1 8 1 14 3 29 1 18-15 67-74 67-60 0-76-48-75-67 2-15 2-21 3-29 1-7-5-8-1-23 6-30 8-17 11-36 8-46 20-30 20-54 0-38 3-35-50-55-55-21-67-34-69-43-2-12-2-77-2-77z"/>
<glyph glyph-name="android-remove" unicode="&#57377;" d="M96 277l320 0 0-42-320 0z"/>
<glyph glyph-name="android-radio-button-off" unicode="&#57382;" d="M256 464c-114 0-208-94-208-208 0-114 94-208 208-208 114 0 208 94 208 208 0 114-94 208-208 208z m0-374c-92 0-166 74-166 166 0 92 74 166 166 166 92 0 166-74 166-166 0-92-74-166-166-166z"/>
<glyph glyph-name="ribbon-b" unicode="&#57384;" d="M256 440c-49 0-88-39-88-88 0-49 39-88 88-88 49 0 88 39 88 88 0 49-39 88-88 88z m0 40c-71 0-128-57-128-128 0-71 57-128 128-128 71 0 128 57 128 128 0 71-57 128-128 128z m0-224c-53 0-96 43-96 96 0 53 43 96 96 96 53 0 96-43 96-96 0-53-43-96-96-96z m-109 2l-83-146 96 0 48-80 48 106 34 74c-11-3-22-4-34-4-44 0-83 19-109 50z m218 0c-15-18-34-31-56-40l-45-98 40-88 48 80 96 0z"/>
<glyph glyph-name="social-buffer" unicode="&#57385;" d="M71 347l169-81c4-2 10-3 16-3 6 0 12 1 16 3l169 81c9 5 9 12 0 16l-169 82c-4 2-10 3-16 3-6 0-12-1-16-3l-169-82c-9-4-9-11 0-16z m370-83c0 0-31 15-35 17-4 2-5 2-9 0-4-2-125-61-125-61-4-2-10-3-16-3-6 0-12 1-16 3 0 0-117 57-123 60-6 3-8 3-13 0-6-3-33-16-33-16-9-4-9-11 0-16l169-81c4-3 10-4 16-4 6 0 12 1 16 4l169 81c9 4 9 11 0 16z m0-100c0 0-31 15-35 17-4 2-5 2-9 0-4-2-125-60-125-60-4-2-10-3-16-3-6 0-12 1-16 3 0 0-117 57-123 59-6 3-8 3-13 1-6-3-33-17-33-17-9-4-9-11 0-15l169-82c4-2 10-3 16-3 6 0 12 1 16 3l169 82c9 4 9 11 0 15z"/>
<glyph glyph-name="social-facebook" unicode="&#57386;" d="M288 320l0 38c0 17 4 26 31 26l33 0 0 64-56 0c-68 0-91-31-91-85l0-43-45 0 0-64 45 0 0-192 83 0 0 192 56 0 8 64z"/>
<glyph glyph-name="social-twitter" unicode="&#57387;" d="M492 402c-17-7-36-12-56-15 20 12 36 31 43 54-19-11-39-19-61-24-18 19-43 31-71 31-54 0-97-43-97-97 0-8 1-15 3-22-81 4-152 43-200 101-8-14-13-31-13-48 0-34 17-64 43-81-16 0-31 5-44 12 0 0 0-1 0-1 0-47 33-86 78-95-8-2-17-4-26-4-6 0-12 1-18 2 12-38 48-66 91-67-34-26-75-42-121-42-8 0-15 1-23 2 43-28 94-44 148-44 179 0 276 148 276 276 0 4 0 8 0 12 19 14 35 31 48 50z"/>
<glyph glyph-name="social-yen" unicode="&#57388;" d="M448 480l-80 0-112-221-112 221-80 0 112-208-48 0 0-48 74 0 14-31 0-17-88 0 0-48 88 0 0-96 80 0 0 96 88 0 0 48-88 0 0 17 15 31 73 0 0 48-48 0z"/>
<glyph glyph-name="comments" unicode="&#57389;" d="M128 288l256 0 0-64-256 0z m0 96l256 0 0-64-256 0z m352 128l-448 0c-18 0-32-14-32-32l0-352c0-18 14-32 32-32l64 0 0-96 144 96 240 0c18 0 32 14 32 32l0 352c0 18-14 32-32 32z m-32-352l-208 0-80-48 0 48-96 0 0 288 384 0z"/>
<glyph glyph-name="browser" unicode="&#57390;" d="M480 0l-448 0c-18 0-32 14-32 32l0 448c0 18 14 32 32 32l448 0c18 0 32-14 32-32l0-448c0-18-14-32-32-32z m-32 448l-384 0 0-96 384 0z m0-160l-384 0 0-224 384 0z m-320 96l-32 0 0 32 32 0z m64 0l-32 0 0 32 32 0z m224 0l-192 0 0 32 192 0z"/>
<glyph glyph-name="hyperlink" unicode="&#57392;" d="M503 380l-123 123c-12 12-30 12-41 0l-124-123c-12-12-12-30 0-42l20-20 124 124 83-83-124-124 21-20c11-12 29-12 41 0l123 123c12 12 12 30 0 42z m-226-186l-124-124-83 83 124 124-20 20c-12 12-30 12-42 0l-123-123c-12-12-12-30 0-42l123-123c12-12 30-12 42 0l123 123c12 12 12 30 0 42z m-103-20c11-12 29-12 41 0l124 123c11 12 11 30 0 41-12 12-30 12-42 0l-123-123c-12-12-12-30 0-41z"/>
<glyph glyph-name="pin" unicode="&#57393;" d="M256 512c-106 0-192-86-192-192 0-106 192-320 192-320 0 0 192 214 192 320 0 106-86 192-192 192z m0-320c-71 0-128 57-128 128 0 71 57 128 128 128 71 0 128-57 128-128 0-71-57-128-128-128z"/>
<glyph glyph-name="sign-out" unicode="&#57397;" d="M320 128l-128 0 0 288-128 64 256 0 0-96 32 0 0 128-352 0 0-416 192-96 0 96 160 0 0 160-32 0z m192 192l-128 96 0-64-128 0 0-64 128 0 0-64z"/>
<glyph glyph-name="browser-window" unicode="&#57400;" d="M288 192l0 32 96 0 0-32z m0 64l0 32 160 0 0-32z m0 64l0 32 160 0 0-32z m-224 32l160 0 0-160-160 0z m-64 160l0-448 512 0 0 448z m352-32l0-32-192 0 0 32z m-224 0l0-32-32 0 0 32z m-96 0l32 0 0-32-32 0z m448-384l-448 0 0 320 448 0z m0 352l-64 0 0 32 64 0z"/>
<glyph glyph-name="browser-window-add" unicode="&#57401;" d="M448 352l-160 0 0-32 160 0z m-224 0l-160 0 0-160 160 0z m288 160l-512 0 0-448 248 0c26-39 70-64 120-64 80 0 144 64 144 144 0 6 0 11-1 17l1-1z m-352-32l192 0 0-32-192 0z m-64 0l32 0 0-32-32 0z m-64 0l32 0 0-32-32 0z m336-446c-61 0-110 49-110 110 0 61 49 110 110 110 61 0 110-49 110-110 0-61-49-110-110-110z m112 200c-9 12-20 22-32 30l0 24-80 0c0 0 0 0 0 0 0 0 0 0 0 0l-80 0 0-24c-39-26-64-70-64-120 0-17 3-33 8-48l-200 0 0 320 448 0z m0 214l-64 0 0 32 64 0z m-32-288l-64 0 0 64-32 0 0-64-64 0 0-32 64 0 0-64 32 0 0 64 64 0z"/>
<glyph glyph-name="document-text-1" unicode="&#57402;" d="M64 160l0 32 192 0 0-32z m0 128l0 32 256 0 0-32z m0-64l0 32 256 0 0-32z m231 288l-295 0 0-512 384 0 0 423z m-7-39l57-57-57 0z m-256-441l0 448 224 0 0-96 96 0 0-352z"/>
<glyph glyph-name="document-text-accept" unicode="&#57403;" d="M384 287l0 136-89 89-295 0 0-512 384 0 0 1c72 8 128 69 128 143 0 74-56 135-128 143z m-96 186l57-57-57 0z m-256-441l0 448 224 0 0-96 96 0 0-97c-28-3-54-14-74-31l-214 0 0-32 184 0c-6-10-12-21-16-32l-168 0 0-32 161 0c-1-5-1-11-1-16 0-45 21-86 54-112z m336 2c-61 0-110 49-110 110 0 61 49 110 110 110 61 0 110-49 110-110 0-61-49-110-110-110z m-48 286l-256 0 0-32 256 0z m-32-176l32 32 32-32 64 64 32-32-96-96z"/>
<glyph glyph-name="document-text-add" unicode="&#57404;" d="M384 287l0 136-89 89-295 0 0-512 384 0 0 1c72 8 128 69 128 143 0 74-56 135-128 143z m-96 186l57-57-57 0z m-256-441l0 448 224 0 0-96 96 0 0-97c-28-3-54-14-74-31l-214 0 0-32 184 0c-6-10-12-21-16-32l-168 0 0-32 161 0c-1-5-1-11-1-16 0-45 21-86 54-112z m336 2c-61 0-110 49-110 110 0 61 49 110 110 110 61 0 110-49 110-110 0-61-49-110-110-110z m-48 286l-256 0 0-32 256 0z m128-160l-64 0 0 64-32 0 0-64-64 0 0-32 64 0 0-64 32 0 0 64 64 0z"/>
<glyph glyph-name="document-text-cancel" unicode="&#57405;" d="M384 287l0 136-89 89-295 0 0-512 384 0 0 1c72 8 128 69 128 143 0 74-56 135-128 143z m-96 186l57-57-57 0z m-256-441l0 448 224 0 0-96 96 0 0-97c-28-3-54-14-74-31l-214 0 0-32 184 0c-6-10-12-21-16-32l-168 0 0-32 161 0c-1-5-1-11-1-16 0-45 21-86 54-112z m336 2c-61 0-110 49-110 110 0 61 49 110 110 110 61 0 110-49 110-110 0-61-49-110-110-110z m-48 286l-256 0 0-32 256 0z m-16-208l32-32 32 32 32-32 32 32-32 32 32 32-32 32-32-32-32 32-32-32 32-32z"/>
<glyph glyph-name="document-text-edit" unicode="&#57406;" d="M384 287l0 136-89 89-295 0 0-512 384 0 0 1c72 8 128 69 128 143 0 74-56 135-128 143z m-96 186l57-57-57 0z m-256-441l0 448 224 0 0-96 96 0 0-97c-28-3-54-14-74-31l-214 0 0-32 184 0c-6-10-12-21-16-32l-168 0 0-32 161 0c-1-5-1-11-1-16 0-45 21-86 54-112z m336 2c-61 0-110 49-110 110 0 61 49 110 110 110 61 0 110-49 110-110 0-61-49-110-110-110z m-48 286l-256 0 0-32 256 0z m32-240l-48 0 0 48z m96 96l-80-80-48 48 80 80z"/>
<glyph glyph-name="edit-1" unicode="&#57407;" d="M160 64l-96 0 0 96z m352 352l-320-320-96 96 320 320z m-448-416l0 32 352 0 0-32z"/>
<glyph glyph-name="mail" unicode="&#57408;" d="M0 448l0-384 512 0 0 384z m450-32l-194-156-194 156z m-418-320l0 303 224-179 224 179 0-303z"/>
<glyph glyph-name="notes" unicode="&#57409;" d="M64 448l0-384 384 0 0 384z m352-352l-320 0 0 320 320 0z m-288 64l192 0 0 32-192 0z m256 96l-256 0 0-32 256 0z m0 64l-256 0 0-32 256 0z"/>
<glyph glyph-name="notes-accept" unicode="&#57410;" d="M384 320l-256 0 0-32 256 0z m64-56l0 184-384 0 0-384 184 0c26-39 70-64 120-64 80 0 144 64 144 144 0 50-25 94-64 120z m-200-40c-6-10-12-21-16-32l-104 0 0-32 97 0c-1-5-1-11-1-16 0-17 3-33 8-48l-136 0 0 320 320 0 0-136c-15 5-31 8-48 8-34 0-66-12-90-32l-150 0 0-32z m120-190c-61 0-110 49-110 110 0 61 49 110 110 110 61 0 110-49 110-110 0-61-49-110-110-110z m-80 110l32 32 32-32 64 64 32-32-96-96z"/>
<glyph glyph-name="notes-add" unicode="&#57411;" d="M384 320l-256 0 0-32 256 0z m64-56l0 184-384 0 0-384 184 0c26-39 70-64 120-64 80 0 144 64 144 144 0 50-25 94-64 120z m-200-40c-6-10-12-21-16-32l-104 0 0-32 97 0c-1-5-1-11-1-16 0-17 3-33 8-48l-136 0 0 320 320 0 0-136c-15 5-31 8-48 8-34 0-66-12-90-32l-150 0 0-32z m120-190c-61 0-110 49-110 110 0 61 49 110 110 110 61 0 110-49 110-110 0-61-49-110-110-110z m80 126l-64 0 0 64-32 0 0-64-64 0 0-32 64 0 0-64 32 0 0 64 64 0z"/>
<glyph glyph-name="search" unicode="&#57414;" d="M344 214l-4-7 108-109-34-34-108 109-7-5c-24-15-53-25-83-25-84 0-152 69-152 153 0 84 68 152 152 152 84 0 152-68 152-152 0-30-9-58-24-82z m-43 167c-23 23-53 35-85 35-32 0-62-12-85-35-23-23-35-53-35-85 0-32 12-62 35-85 23-23 53-35 85-35 32 0 62 12 85 35 23 23 36 53 36 85 0 32-13 62-36 85z"/>
<glyph glyph-name="align-justify" unicode="&#57418;" d="M37 439l0-65 438 0 0 65z m0-100l0-65 438 0 0 65z m0-101l0-65 438 0 0 65z m0-100l0-65 438 0 0 65z"/>
<glyph glyph-name="align-left" unicode="&#57419;" d="M263 439l0-65-226 0 0 65z m120-100l0-65-346 0 0 65z m-79-101l0-65-267 0 0 65z m171-100l0-65-438 0 0 65z"/>
<glyph glyph-name="heart-1" unicode="&#57420;" d="M467 392c20-61 3-124-32-171-23-32-51-60-79-84-26-24-85-72-100-74-14 3-29 18-40 26-61 47-127 103-160 165-28 59-28 132 15 178 57 51 142 41 185-12 11 15 26 27 43 35 68 28 139 0 168-63z"/>
<glyph glyph-name="heart-empty" unicode="&#57421;" d="M341 471c-18 0-36-4-53-11l-1 0-1 0c-11-6-22-13-31-22-49 43-127 46-180-2l-1-1 0 0c-47-49-46-125-18-184l0-1 0 0c34-62 95-114 152-157l0 0 0 0c4-3 10-8 17-13 7-6 15-12 27-14l3-1 3 1c12 1 17 5 25 11 8 5 17 11 27 18 18 15 37 31 50 42 0 1 0 1 0 1 0 0 0 0 0 0 27 23 53 49 75 79 0 0 0 0 0 0 0 0 0 0 0 0 35 48 52 111 32 174l0 1-1 1c-23 50-72 79-125 78z m1-39c38 1 72-19 88-54 16-49 2-99-26-138l-1 0c-19-27-44-51-69-73l0 0 0 0c-12-11-31-27-48-41-9-6-17-12-24-16-2-2-4-3-6-4-2 1-5 3-8 5-5 4-11 9-17 13 0 1 0 1 0 1-55 41-112 92-140 143-22 48-21 105 10 139 44 38 108 30 140-9l15-20 15 20c9 11 19 20 32 26 13 5 26 8 39 8z"/>
<glyph glyph-name="paper-clip" unicode="&#57422;" d="M209 69c75 75 135 135 200 199 22 23 36 45 41 67 10 41-5 76-32 104-26 26-54 38-84 37-29-2-59-17-87-45l-185-185 31-30 184 184c19 18 41 35 67 33 39-6 74-54 65-87-11-30-27-44-49-66-66-66-117-117-181-181-24-22-40-28-62-7-12 11-17 23-16 34 2 13 9 22 18 30l168 169c8 7 25 22 33 15 5-13-9-25-16-32l-155-155 30-30 155 155c27 27 46 61 16 92-33 29-68 10-93-15l-169-168c-17-18-27-37-29-57-2-28 11-51 28-68 16-17 34-26 56-26 26 1 52 19 66 33z"/>
<glyph glyph-name="clipboard-notes" unicode="&#57423;" d="M413 424l0 0c0 0 0 0 0 0 0 15-12 27-26 27-1 0-1 0-1 0l-74 0 0 18c0 4-4 8-9 8l0 0-94 0 0 0c0 0 0 0 0 0-5 0-8-4-8-8 0 0 0 0 0-1l0-17-76 0c0 0 0 0 0 0-14 0-26-12-26-27 0 0 0 0 0 0l0 0 0-362 0 0c0 0 0 0 0 0 0-15 12-27 26-27 1 0 1 0 2 0l0 0 258 0c1 0 1 0 2 0 14 0 26 12 26 27 0 0 0 0 0 0l1 0 0 362z m-50-338l-214 0 0 314 26 0 0-15c0-1 0-1 0-1 0-5 4-9 9-9 0 0 0 0 0 0l0 0 144 0c5 0 9 4 9 9 0 0 0 0 0 0l0 16 26 0 0-314z m-163 215c0 4-2 7-6 7 0 0 0 0 0-1l0 1-13 0c-3 0-6-3-6-7l0-13c0-3 3-6 6-6l13 0 0 0c0 0 0 0 0 0 4 0 6 3 6 6l0 13 0 0z m137 0c0 4-3 7-6 7 0 0 0 0 0 0l-99 0c-3 0-6-3-6-7l0-13c0-3 3-6 6-6l99 0c3 0 6 3 6 6l0 13 0 0z m-137-51c0 4-2 7-6 7 0 0 0-1 0-1l0 1-13 0c-3 0-6-3-6-7l0-13c0-3 3-6 6-6l13 0 0 0c0 0 0 0 0 0 4 0 6 3 6 6l0 13 0 0z m137 0c0 4-3 7-6 7 0 0 0 0 0 0l-99 0c-3 0-6-3-6-7l0-13c0-3 3-6 6-6l99 0c3 0 6 3 6 6l0 13 0 0z m-137-51c0 4-2 6-6 6 0 0 0 0 0 0l0 0-13 0c-3 0-6-2-6-6l0-13c0-3 3-6 6-6l13 0 0 0c0 0 0 0 0 0 4 0 6 3 6 6l0 13 0 0z m137 0c0 4-3 6-6 6 0 0 0 0 0 0l-99 0c-3 0-6-2-6-6l0-13c0-3 3-6 6-6l99 0c3 0 6 3 6 6l0 13 0 0z"/>
<glyph glyph-name="clipboard-pencil" unicode="&#57424;" d="M450 292l-42 42c-2 2-6 2-9 0l-115-116 0 0-1 0-15-59 0 0c-1-2-1-5 1-6 2-2 5-3 7-2l0 0 59 16 0 0 0 0 115 116c3 2 3 6 0 9z m-163-121l9 35 26-26z m81-34l-38 0c0 0 0 0 0 0-3 0-6-3-6-6l0 0 0-45-213 0 0 314 25 0 0-15c0-1 0-1 0-1 0-5 4-9 9-9 1 0 1 0 1 0l0 0 143 0c5 0 9 4 9 9 0 0 0 0 0 0l0 16 26 0 0-44 0 0c0-4 3-7 6-7l38 0c4 0 7 3 7 7l0 68 0 0c0 0 0 0 0 0 0 15-12 27-27 27 0 0 0 0-1 0l-74 0 0 18c0 4-4 8-8 8l0 0-95 0 0 0c0 0 0 0 0 0-5 0-8-4-8-8 0 0 0 0 0-1l0-17-75 0c0 0 0 0 0 0-15 0-27-12-27-27 0 0 0 0 0 0l0 0 0-362 0 0c0 0 0 0 0 0 0-15 12-27 27-27 0 0 0 0 1 0l0 0 258 0c1 0 1 0 2 0 15 0 27 12 27 27 0 0 0 0 0 0l0 0 0 69c0 3-3 6-7 6z"/>
<glyph glyph-name="dollar" unicode="&#57425;" d="M278 283l0 51c17-4 33-12 47-24l0 0c1-1 2-1 4-1 1 0 3 1 4 2l0 0 22 31 0 0c1 1 1 2 1 4 0 1 0 3-2 4-20 19-46 30-76 33l0 30 0 0c0 3-3 6-6 6l-23 0c-4 0-6-3-6-6l0-29c-51-5-81-38-81-75 0-51 42-66 81-76l0-58c-25 5-46 18-59 32 0 0-1 0-1 0 0 0 0 1 0 1l0 0c-1 0-2 1-4 1-2 0-4-1-5-3l0 0-21-32 0 0c-1-1-1-2-1-3 0-2 0-4 2-5l0 0c20-21 49-36 89-39l0-28c0-3 2-6 6-6l23 0c3 0 6 3 6 6l0 0 0 28c55 6 82 38 82 79 0 52-43 67-82 77z m-35 8c-16 5-26 11-26 22 0 12 9 21 26 24z m35-116l0 50c16-5 28-11 28-24 0-12-9-23-28-26z"/>
<glyph glyph-name="paperclip" unicode="&#57426;" d="M155 59c-14 0-32 5-50 23-24 24-27 47-25 62 2 17 11 34 27 50l150 151c43 42 71 26 83 13 16-15 26-42-14-82l-138-139-27 27 138 139c22 21 17 26 14 28-1 2-7 8-29-13l-150-151c-7-7-15-17-16-28-1-9 4-19 14-30 13-13 23-12 26-11 9 1 19 7 30 18 13 12 167 166 178 178 15 15 24 29 28 42 5 20-1 38-20 57-19 19-51 40-98-8l-165-165c-8-7-20-7-27 0-8 8-8 20 0 27l165 165c51 51 106 54 152 8 36-36 36-71 30-94-6-20-18-39-38-59-11-12-166-166-178-178-17-17-34-26-51-29-3 0-6-1-9-1z"/>
<glyph glyph-name="results-demographics" unicode="&#57427;" d="M143 274c-7 14-11 31-11 47 0 9 2 18 4 28 1 4 3 9 5 13-7 3-14 5-21 5-28 0-51-26-51-59 0-22 11-42 27-52l-68-32c-5-2-7-7-7-12l0-54c0-8 5-13 11-13l40 0 0 56c0 17 10 32 24 39l53 24c-2 3-4 7-6 10z m165 60l174 0 0 0c0 0 0 0 0 0 5 0 10 4 10 9 0 0 0 0 0 0l0 33c0 5-5 9-10 9 0 0 0 0 0 0l0 0-195 0c9-11 15-24 18-38 2-5 2-9 3-13z m184-162c0 5-5 9-10 9 0 0 0 0 0 0l0 0-113 0 0-47c0-1 0-3-1-4l114 0 0 0c0 0 0 0 0 0 5 0 10 4 10 9z m-10 111c0 0 0 0 0 0l0 0-180 0c-1-2-2-4-3-7-2-4-4-8-6-11l53-25c4-2 7-5 10-8l126 0 0 0c0 0 0 0 0 0 5 0 10 4 10 9 0 0 0 0 0 0l0 33c0 5-5 9-10 9z m-148-66l-59 28-25 12c11 7 20 17 26 30 5 10 7 22 7 34 0 7-1 13-2 20-8 30-32 53-60 53-29 0-52-22-60-52-2-6-3-14-3-21 0-13 3-25 8-36 6-12 15-22 26-29l-24-11-61-28c-6-3-9-9-9-16l0-67c0-9 6-16 14-16l217 0c8 0 14 7 14 16l0 67c0 7-3 13-9 16z"/>
<glyph glyph-name="torso-business" unicode="&#57428;" d="M410 203l-80 38-34 16c15 9 27 24 35 41 6 14 10 29 10 46 0 9-1 18-4 27-10 41-42 72-81 72-38 0-70-30-81-70-2-9-4-19-4-29 0-18 4-34 11-49 8-16 20-30 35-39l-33-15-82-38c-7-4-12-12-12-21l0-91c0-12 8-22 19-22l123 0 0 70c0 0 0 1 0 2l0 0 20 35 0 0c1 1 2 2 4 2 2 0 3-1 4-2l0 0 0-1c0 0 0 0 0 0l20-34 0 0c0-1 0-2 0-2l0-70 123 0c11 0 19 10 19 22l0 91c0 9-4 17-12 21z m-130 23l0 0-20-35 0 0c-1-1-2-2-4-2-2 0-3 1-4 2l0 0 0 0c0 0 0 0 0 0l-20 35 0 0c0 0 0 1 0 2 0 2 2 4 4 4l40 0c2 0 4-2 4-4 0-1 0-2 0-2z"/>
<glyph glyph-name="torsos" unicode="&#57429;" d="M207 257c4 3 9 7 13 11-14 20-22 46-22 72 0 18 3 35 10 51-10 6-21 10-33 10-36 0-66-34-66-77 0-29 15-55 36-68l-90-41c-5-3-9-9-9-16l0-71c0-9 7-17 15-17l59 0 0 74c0 19 11 36 27 44z m248-52l-77 36-33 16c14 9 26 23 33 39 6 14 10 28 10 44 0 9-2 18-3 26-10 40-41 69-79 69-36 0-67-28-77-67-3-9-4-18-4-28 0-17 4-32 11-46 7-16 19-29 33-38l-31-14-80-37c-7-3-11-11-11-20l0-87c0-12 8-21 18-21l283 0c10 0 18 9 18 21l0 87c0 9-5 16-11 20z"/>
<glyph glyph-name="align-center" unicode="&#57430;" d="M64 469l0-448 363 0 0 448z m320-405l-277 0 0 363 277 0z m-85 299l-128 0 0-43 128 0z m42-64l-192 0 0-22 192 0z m0-43l-192 0 0-21 192 0z m0-43l-192 0 0-21 192 0z m-128-64l64 0 0 22-64 0z"/>
<glyph glyph-name="align-justify-1" unicode="&#57431;" d="M64 469l0-448 363 0 0 448z m320-405l-277 0 0 363 277 0z m-43 299l-192 0 0-43 192 0z m0-64l-192 0 0-22 192 0z m0-43l-192 0 0-21 192 0z m0-43l-192 0 0-21 192 0z m0-42l-192 0 0-22 192 0z"/>
<glyph glyph-name="align-left-1" unicode="&#57432;" d="M64 469l0-448 363 0 0 448z m320-405l-277 0 0 363 277 0z m-107 299l-128 0 0-43 128 0z m64-64l-192 0 0-22 192 0z m0-43l-192 0 0-21 192 0z m0-43l-192 0 0-21 192 0z m-128-42l-64 0 0-22 64 0z"/>
<glyph glyph-name="archive" unicode="&#57433;" d="M448 277l0 150-64 0 0 64-341 0 0-214-22 0 0-42 22 0 0-235 426 0 0 235 22 0 0 42z m-43 107l0-107-256 0 0 107z m-320 64l256 0 0-21-234 0 0-150-22 0z m342-405l-342 0 0 192 342 0z m-43 170l-256 0 0-149 256 0z m-21-128l-214 0 0 107 214 0z m-22 86l-170 0 0-22 170 0z m-64-43l-106 0 0-21 106 0z"/>
<glyph glyph-name="diamond-1" unicode="&#57434;" d="M371 470l-230 0-141-139 256-289 256 289z m90-151l-1 2-190 0 92 98z m-239-178l-150 158 99 0-10-4z m-40 158l148 0-74-184z m159 0l99 0-150-158 61 154z m-85 37l-83 91 166 0z m-106 82l92-97-190 0-1-1z"/>
<glyph glyph-name="flag" unicode="&#57435;" d="M405 469l0-8c-21 6-37 9-57 9-38 0-76-12-112-23-35-11-67-21-99-21-24 0-43 6-63 19l-31 21 0-328 7-7c27-17 55-25 88-25 38 0 74 11 110 23 34 11 69 21 100 21 20 0 36-4 57-13l0-138 43 0 0 470z m0-285c-21 6-37 9-57 9-38 0-76-12-112-23-35-11-65-22-97-22-20 0-32 5-54 14l0 230c22-6 34-9 54-9 38 0 74 12 110 23 34 11 68 22 99 22 20 0 36-5 57-14z"/>
<glyph glyph-name="files" unicode="&#57436;" d="M107 512l0-64-64 0 0-448 362 0 0 64 64 0 0 448z m256-469l-278 0 0 362 22 0 0-341 256 0z m64 64l-278 0 0 362 278 0z m-107 298l-128 0 0-42 128 0z m64-64l-192 0 0-21 192 0z m0-42l-192 0 0-22 192 0z m0-43l-192 0 0-21 192 0z m-128-43l-64 0 0-21 64 0z"/>
<glyph glyph-name="paperclip-1" unicode="&#57437;" d="M452 412l-61 60c-41 41-109 41-151 0l-211-211 30-30 212 211c25 25 65 25 90 0l60-61c25-25 25-65 0-90l-211-211c-27-27-57-33-65-25l-10 10-15 15-33 33c-4 3-1 24 10 35l211 211c3 2 23-8 38-23-7-6-5-5-8-7l-153-154 30-30 154 153c18 19 41 35 7 68-33 34-67 54-98 23l-211-211c-25-25-35-71-10-95l33-33 25-25c28-29 83-18 125 25l212 211c41 41 41 109 0 151z"/>
<glyph glyph-name="user-outline" unicode="&#57438;" d="M505 86c-36 85-105 125-158 143 24 33 37 81 37 140 1 99-81 126-124 127-44 0-126-25-127-125 0-59 12-107 35-140-54-18-123-56-161-141l-9-20 21-8c4-2 109-45 237-46 127-1 233 40 237 41l21 8z m-246 367c9 0 83-4 83-84-1-64-18-112-48-133l-37-26-36 27c-29 21-46 70-45 134 0 80 75 82 83 82z m-3-394c-86 1-163 22-199 34 39 69 105 95 156 106l44 9 45-10c50-11 116-39 154-108-36-12-113-32-200-31z"/>
<glyph glyph-name="user-1" unicode="&#57439;" d="M256 192c0 0-171 0-235-149 0 0 107-43 235-43 128 0 235 43 235 43-64 149-235 149-235 149z m0 21c64 0 107 64 107 171 0 107-107 107-107 107 0 0-107 0-107-107 0-107 43-171 107-171z"/>
<glyph glyph-name="users" unicode="&#57440;" d="M320 206c0 0-132 0-181-116 0 0 82-33 181-33 99 0 181 33 181 33-49 116-181 116-181 116z m0 16c49 0 82 49 82 132 0 82-82 82-82 82 0 0-82 0-82-82 0-82 33-132 82-132z m-160 56c16 0 30 7 41 19-4 17-6 36-6 57 0 32 12 51 27 63-16 38-62 38-62 38 0 0-68 0-68-68 0-68 27-109 68-109z m64-53l-2 27c-34 13-62 13-62 13 0 0-109 0-149-95 0 0 52-21 120-26 59 62 93 81 93 81z"/>
<glyph glyph-name="facebook-1" unicode="&#57441;" d="M195 397c0-11 0-63 0-63l-47 0 0-78 47 0 0-230 95 0 0 230 65 0c0 0 6 37 8 78-8 0-72 0-72 0 0 0 0 45 0 53 0 8 10 19 21 19 10 0 31 0 52 0 0 10 0 47 0 80-27 0-58 0-71 0-100 0-98-77-98-89z"/>
<glyph glyph-name="facebook-places" unicode="&#57442;" d="M407 372c-1 6-5 12-7 18-30 71-94 96-146 96-70 0-146-46-157-143l0-19c0-1 1-8 1-12 6-46 42-95 69-141 29-49 59-97 89-145 19 31 37 63 55 94 5 9 11 18 15 26 4 6 10 12 13 17 29 53 76 107 76 160l0 22c0 5-7 25-8 27z m-152-99c-20 0-43 10-54 38-1 5-1 14-1 15l0 13c0 36 30 52 57 52 33 0 58-26 58-59 0-33-27-59-60-59z"/>
<glyph glyph-name="whatsapp" unicode="&#57443;" d="M486 260c0-124-101-225-226-225-39 0-77 11-109 28l-125-39 40 120c-20 34-32 73-32 116 0 124 101 224 226 224 125 0 226-100 226-224z m-226 189c-105 0-190-85-190-189 0-41 13-80 36-111l-24-70 74 23c30-19 66-31 104-31 105 0 190 85 190 189 0 104-85 189-190 189z m114-241c-1 2-5 4-10 7-6 2-33 16-38 17-5 2-9 3-13-2-3-6-14-18-17-22-3-4-7-4-12-1-6 3-24 8-45 27-16 15-27 33-31 38-3 6 0 9 3 11 2 3 5 7 8 10 3 3 4 6 6 9 2 4 1 7-1 10-1 3-12 30-17 41-4 11-9 9-12 9-4 0-7 0-11 0-4 0-10-1-15-7-5-5-19-18-19-45 0-28 20-54 22-57 3-4 39-61 95-83 57-22 57-15 67-14 10 1 33 13 37 26 5 13 5 24 3 26z"/>
<glyph glyph-name="pricetag" unicode="&#76;" d="M471 251l-210 211-2 2c0 0 0 0 0 0-8 8-18 12-30 12l-100 4-4 0c-11 0-22-5-31-13l-49-49c-9-9-13-21-13-33 0 0 0 0 0 0l0-4 7-98c0 0 0 0 0 0l0-2c1-8 5-17 10-24l6-6 206-208 3-3c12-11 30-10 42 1l165 167c12 11 12 31 0 43z m-327 69c-26 0-48 21-48 48 0 26 22 48 48 48 27 0 48-22 48-48 0-27-21-48-48-48z"/>
<glyph glyph-name="heart-o" unicode="&#77;" d="M475 342c0 15-2 29-6 41-4 11-9 21-15 28-7 7-15 12-24 17-9 4-18 7-27 9-8 1-18 2-28 2-9 0-20-3-32-7-11-5-22-11-31-19-10-7-18-14-25-20-7-7-12-13-17-18-3-4-8-6-14-6-6 0-11 2-14 6-5 5-10 11-17 18-7 6-15 13-25 20-9 8-20 14-31 19-12 4-23 7-32 7-10 0-20-1-28-2-9-2-18-5-27-9-9-5-17-10-24-17-6-7-11-17-15-28-4-12-6-26-6-41 0-32 17-66 53-102l166-160 166 160c36 36 53 70 53 102z m37 0c0-42-22-85-65-129l-178-171c-4-4-8-5-13-5-5 0-9 1-13 5l-178 172c-2 1-4 4-8 7-3 4-8 10-16 19-7 9-13 18-19 28-6 9-11 21-15 34-5 14-7 27-7 40 0 42 12 74 36 98 24 24 58 35 101 35 11 0 23-2 36-6 12-4 23-9 34-16 11-7 20-14 27-20 8-6 15-12 22-19 7 7 14 13 22 19 7 6 16 13 27 20 11 7 22 12 34 16 13 4 25 6 36 6 43 0 77-11 101-35 24-24 36-56 36-98z"/>
</font>
</defs>
</svg>
